<?xml version="1.0" standalone="no"?>
<!DOCTYPE svg PUBLIC "-//W3C//DTD SVG 1.1//EN" "http://www.w3.org/Graphics/SVG/1.1/DTD/svg11.dtd" >
<svg xmlns="http://www.w3.org/2000/svg" xmlns:xlink="http://www.w3.org/1999/xlink" version="1.1">
<metadata>
Created by FontForge 20170731 at Sat Oct 29 01:17:00 2016
 By Aleksey,,,
Copyright (C) 2001, 2010 Hoefler &#38; Co. http://www.typography.com
</metadata>
<defs>
<font id="GothamSSm-Light" horiz-adv-x="530" >
  <font-face 
    font-family="Gotham SSm Light"
    font-weight="300"
    font-stretch="normal"
    units-per-em="1000"
    panose-1="0 0 0 0 0 0 0 0 0 0"
    ascent="800"
    descent="-200"
    x-height="534"
    cap-height="728"
    bbox="-15 -244 1127 994"
    underline-thickness="50"
    underline-position="-200"
    unicode-range="U+0020-2122"
  />
<missing-glyph horiz-adv-x="500" 
d="M0 800h500v-1000h-500v1000zM250 360l179 390h-358zM222 300l-172 376v-752zM278 300l172 -376v752zM71 -150h358l-179 390z" />
    <glyph glyph-name=".notdef" horiz-adv-x="500" 
d="M0 800h500v-1000h-500v1000zM250 360l179 390h-358zM222 300l-172 376v-752zM278 300l172 -376v752zM71 -150h358l-179 390z" />
    <glyph glyph-name=".null" horiz-adv-x="0" 
 />
    <glyph glyph-name="nonmarkingreturn" horiz-adv-x="322" 
 />
    <glyph glyph-name="space" unicode=" " horiz-adv-x="322" 
 />
    <glyph glyph-name="exclam" unicode="!" horiz-adv-x="283" 
d="M102 663v65h79v-65l-20 -464h-38zM100 100h83v-100h-83v100z" />
    <glyph glyph-name="quotedbl" unicode="&#x22;" horiz-adv-x="454" 
d="M304 728h83v-5l-79 -269h-38zM108 728h83v-5l-79 -269h-38z" />
    <glyph glyph-name="numbersign" unicode="#" horiz-adv-x="738" 
d="M643 189h-139l-32 -189h-63l32 189h-205l-33 -189h-63l32 189h-118v61h129l40 232h-128v61h138l32 185h63l-32 -185h206l32 185h63l-32 -185h118v-61h-128l-40 -232h128v-61zM245 250h207l40 233h-207z" />
    <glyph glyph-name="dollar" unicode="$" horiz-adv-x="669" 
d="M530 589q-78 65 -163 77v-272q119 -26 172 -73.5t53 -125.5v-1q0 -41 -16.5 -75.5t-45.5 -60t-70 -40.5t-90 -18v-102h-59v103q-71 7 -131 34.5t-115 75.5l41 52q48 -44 97.5 -69t110.5 -33v276q-116 27 -169 73.5t-52 126.5v1q0 39 16 73t45 59.5t69 40.5t88 17v60h59
v-62q60 -6 107 -27t93 -57zM524 191q0 24 -7 44t-24.5 36.5t-48 30t-77.5 24.5v-267q72 3 115 39.5t42 91.5v1zM161 541q0 -23 6.5 -43t23.5 -36.5t46.5 -30.5t76.5 -26v264q-35 -1 -63 -11.5t-48.5 -27.5t-31 -39.5t-10.5 -48.5v-1z" />
    <glyph glyph-name="percent" unicode="%" horiz-adv-x="873" 
d="M222 364q-36 0 -66 15t-51 40.5t-32.5 59t-11.5 69.5v2q0 37 11.5 71t33 59.5t51.5 40.5t67 15q36 0 66 -15t51.5 -40.5t33 -59t11.5 -69.5v-2q0 -37 -12 -70.5t-33.5 -59t-51.5 -41t-67 -15.5zM222 684q-22 0 -40 -10.5t-31 -28.5t-20.5 -42t-7.5 -51v-2q0 -29 8 -53.5
t22 -42.5t32 -28t39 -10q22 0 40.5 10.5t31.5 28.5t20.5 42t7.5 51v2q0 28 -8 52.5t-22 42.5t-32.5 28.5t-39.5 10.5zM670 728h66l-279 -380l-255 -348h-66l278 377zM648 -8q-36 0 -66 15t-51 40.5t-32.5 58.5t-11.5 70v2q0 37 11.5 70.5t33 59t51.5 41t67 15.5q36 0 66 -15
t51.5 -40.5t33 -59t11.5 -69.5v-2q0 -37 -12 -71t-33.5 -59.5t-51.5 -40.5t-67 -15zM650 44q22 0 40.5 10t31.5 28t20.5 42t7.5 52v2q0 28 -8 52.5t-22 42.5t-32.5 28.5t-39.5 10.5q-22 0 -40 -10.5t-31 -28.5t-20.5 -42t-7.5 -51v-2q0 -29 8 -53.5t22 -42.5t32 -28t39 -10z
" />
    <glyph glyph-name="ampersand" unicode="&#x26;" horiz-adv-x="734" 
d="M522 109q-51 -57 -110.5 -88t-131.5 -31q-48 0 -89.5 14.5t-72 41.5t-47.5 64.5t-17 82.5v2q0 73 47 125.5t134 85.5q-39 45 -58 82t-19 81v2q0 36 14 66.5t38.5 53.5t59 36t76.5 13q37 0 68.5 -12.5t55 -34.5t36.5 -51.5t13 -62.5v-2q0 -69 -47 -114.5t-128 -74.5
l177 -182q26 36 48.5 78.5t42.5 90.5l59 -26q-24 -54 -50.5 -101t-55.5 -87l130 -133l-54 -43zM304 429q148 48 148 144v2q0 47 -30.5 77.5t-77.5 30.5q-26 0 -47.5 -8.5t-37.5 -23.5t-24.5 -35.5t-8.5 -43.5v-2q0 -17 4 -32t13 -31.5t24 -35t37 -42.5zM284 49
q56 0 104.5 28t90.5 76l-204 210q-79 -28 -115 -72t-36 -94v-2q0 -31 12 -57.5t33 -46t50.5 -31t64.5 -11.5z" />
    <glyph glyph-name="quotesingle" unicode="'" horiz-adv-x="258" 
d="M108 728h84v-5l-80 -269h-38z" />
    <glyph glyph-name="parenleft" unicode="(" horiz-adv-x="460" 
d="M365 -147q-139 78 -213.5 190t-74.5 255v1q0 142 74.5 254.5t213.5 190.5l29 -45q-121 -76 -184.5 -174.5t-63.5 -226.5v-1q0 -126 63.5 -225t184.5 -174z" />
    <glyph glyph-name="parenright" unicode=")" horiz-adv-x="460" 
d="M65 -102q121 76 184.5 174t63.5 226v1q0 127 -63.5 226t-184.5 174l29 45q140 -78 214.5 -190.5t74.5 -255.5v-1q0 -141 -74.5 -253.5t-214.5 -190.5z" />
    <glyph glyph-name="asterisk" unicode="*" horiz-adv-x="457" 
d="M214 548l-109 -75l-26 44l122 57l-122 56l26 44l109 -75l-10 131h50l-11 -131l109 75l26 -44l-122 -56l122 -57l-26 -44l-109 75l11 -131h-50z" />
    <glyph glyph-name="plus" unicode="+" horiz-adv-x="658" 
d="M296 334h-220v64h220v218h66v-218h220v-64h-220v-218h-66v218z" />
    <glyph glyph-name="comma" unicode="," horiz-adv-x="258" 
d="M56 -88q37 16 52 36t13 52h-34v100h84v-86q0 -57 -24 -87.5t-78 -46.5z" />
    <glyph glyph-name="hyphen" unicode="-" horiz-adv-x="434" 
d="M75 347h285v-72h-285v72z" />
    <glyph glyph-name="period" unicode="." horiz-adv-x="258" 
d="M87 100h84v-100h-84v100z" />
    <glyph glyph-name="slash" unicode="/" horiz-adv-x="535" 
d="M471 830h64l-487 -963h-63z" />
    <glyph glyph-name="zero" unicode="0" horiz-adv-x="752" 
d="M375 -12q-70 0 -126.5 30t-96 81t-60.5 119t-21 144v2q0 76 21.5 144t61.5 119.5t96.5 82t126.5 30.5t126 -30t95.5 -81t61 -119t21.5 -144v-2q0 -76 -21.5 -144t-61.5 -119.5t-96.5 -82t-126.5 -30.5zM377 51q53 0 96 25.5t73 68.5t46 99.5t16 117.5v2q0 61 -16.5 118
t-47 100t-73.5 69t-96 26q-54 0 -97 -25.5t-73 -68.5t-46 -99.5t-16 -117.5v-2q0 -61 16.5 -117.5t47 -100t73.5 -69.5t97 -26z" />
    <glyph glyph-name="one" unicode="1" horiz-adv-x="372" 
d="M191 661l-138 -45l-18 56l173 61h52v-733h-69v661z" />
    <glyph glyph-name="two" unicode="2" horiz-adv-x="629" 
d="M55 54l267 238q43 39 73 70.5t48.5 59t26.5 53.5t8 54q0 34 -12.5 61t-33.5 46t-49 29.5t-59 10.5q-65 0 -112 -33t-92 -96l-51 36q24 36 50 65t56.5 49t68.5 30.5t86 10.5t88.5 -15.5t70 -42.5t46 -64t16.5 -81v-2q0 -39 -10.5 -72t-33 -65.5t-57 -67.5t-82.5 -78
l-207 -185h397v-65h-503v54z" />
    <glyph glyph-name="three" unicode="3" horiz-adv-x="646" 
d="M328 -12q-91 0 -157.5 36t-111.5 94l52 45q43 -54 96 -83t123 -29q34 0 65 11t53.5 30.5t36 47t13.5 61.5v2q0 36 -16 63.5t-44.5 46t-67.5 28.5t-86 10h-44l-15 41l239 272h-367v64h461v-51l-237 -266q49 -3 94 -17t79.5 -39t54.5 -62t20 -87v-2q0 -48 -19 -88
t-52 -68.5t-77 -44t-93 -15.5z" />
    <glyph glyph-name="four" unicode="4" horiz-adv-x="704" 
d="M460 175h-388l-20 51l414 507h62v-499h115v-59h-115v-175h-68v175zM460 234v400l-324 -400h324z" />
    <glyph glyph-name="five" unicode="5" horiz-adv-x="643" 
d="M320 -12q-77 0 -143 33.5t-115 82.5l47 50q48 -48 101.5 -75.5t110.5 -27.5q41 0 75 13t58 36t37.5 54.5t13.5 67.5v2q0 36 -14 65.5t-38.5 50.5t-59.5 33t-77 12q-48 0 -86.5 -12.5t-71.5 -30.5l-49 33l21 353h415v-65h-354l-16 -251q33 16 68 26t83 10q53 0 99 -15.5
t79.5 -44.5t53 -70t19.5 -92v-2q0 -53 -19 -96t-53.5 -74.5t-81.5 -48.5t-103 -17z" />
    <glyph glyph-name="six" unicode="6" horiz-adv-x="681" 
d="M350 -12q-58 0 -106.5 19.5t-81.5 53.5q-23 22 -40 48t-28.5 59.5t-17.5 76.5t-6 99v2q0 82 20.5 154t59.5 125.5t94.5 84t125.5 30.5q64 0 114.5 -22t98.5 -61l-42 -54q-42 36 -83 55t-92 19q-54 0 -96 -26t-70.5 -71t-43.5 -105.5t-15 -129.5v-14q38 58 89.5 90
t126.5 32q50 0 96 -16t80.5 -45t55 -70t20.5 -91v-2q0 -52 -20 -96t-55 -76.5t-82 -50.5t-102 -18zM353 50q42 0 76 14t58 38t37 56t13 68v2q0 35 -14 65t-38.5 52t-59 34.5t-75.5 12.5q-42 0 -77.5 -14.5t-60.5 -38t-39 -53.5t-14 -62v-3q0 -36 14.5 -67.5t40.5 -54.5
t61.5 -36t77.5 -13z" />
    <glyph glyph-name="seven" unicode="7" horiz-adv-x="625" 
d="M486 663h-410v65h489v-52l-331 -676h-78z" />
    <glyph glyph-name="eight" unicode="8" horiz-adv-x="665" 
d="M333 -10q-58 0 -108 15t-86.5 42t-57 65t-20.5 83v2q0 65 43.5 111t110.5 69q-26 11 -49.5 27t-41 36.5t-28 46.5t-10.5 58v2q0 42 20.5 77.5t54.5 60.5t78.5 39t93.5 14t93.5 -14t78.5 -39t54.5 -60.5t20.5 -77.5v-2q0 -32 -10.5 -58t-28.5 -46.5t-41.5 -36.5t-49.5 -27
q67 -24 111 -69.5t44 -109.5v-2q0 -46 -21 -84t-57.5 -65t-86 -42t-107.5 -15zM333 401q36 0 68 10t56 29t38 44.5t14 57.5v2q0 29 -13.5 53.5t-37 42t-56 27.5t-69.5 10q-38 0 -70 -10t-56 -27.5t-37.5 -42t-13.5 -53.5v-2q0 -32 14 -57.5t38 -44.5t56.5 -29t68.5 -10z
M333 51q47 0 84 11.5t63 31.5t40 46t14 55v2q0 32 -16 59t-43 46.5t-63.5 30t-78.5 10.5t-78.5 -10.5t-64 -30t-43 -46.5t-15.5 -59v-2q0 -29 13.5 -55t39.5 -46t63.5 -31.5t84.5 -11.5z" />
    <glyph glyph-name="nine" unicode="9" horiz-adv-x="681" 
d="M313 51q53 0 95 26t71.5 70t45 102.5t15.5 123.5v21q-35 -58 -88 -92t-127 -34q-56 0 -102 17t-80 47t-52.5 71t-18.5 89v3q0 51 19 95.5t53 78t81.5 52.5t105.5 19q61 0 108 -20t81 -54q21 -21 38 -47.5t28.5 -60.5t18 -77t6.5 -98v-2q0 -86 -22.5 -158.5t-62 -124.5
t-94.5 -81t-121 -29q-70 0 -123.5 25.5t-98.5 63.5l42 54q45 -40 88.5 -60t93.5 -20zM331 329q44 0 79.5 15t60 39t38 55t13.5 64v2q0 36 -14.5 68t-40.5 55.5t-61.5 37t-78.5 13.5t-77 -15t-57.5 -39.5t-36 -57.5t-12.5 -69v-2q0 -36 13.5 -66.5t38.5 -52.5t59.5 -34.5
t75.5 -12.5z" />
    <glyph glyph-name="colon" unicode=":" horiz-adv-x="268" 
d="M92 534h84v-100h-84v100zM92 100h84v-100h-84v100z" />
    <glyph glyph-name="semicolon" unicode=";" horiz-adv-x="268" 
d="M92 534h84v-100h-84v100zM61 -88q37 16 52 36t13 52h-34v100h84v-86q0 -57 -24 -87.5t-78 -46.5z" />
    <glyph glyph-name="less" unicode="&#x3c;" horiz-adv-x="658" 
d="M71 338v57l486 246v-70l-409 -204l409 -205v-70z" />
    <glyph glyph-name="equal" unicode="=" horiz-adv-x="658" 
d="M90 519h478v-66h-478v66zM90 280h478v-67h-478v67z" />
    <glyph glyph-name="greater" unicode="&#x3e;" horiz-adv-x="658" 
d="M101 161l409 204l-409 206v70l486 -246v-57l-486 -246v69z" />
    <glyph glyph-name="question" unicode="?" horiz-adv-x="567" 
d="M223 367l5 6q103 2 157 43.5t54 111.5v2q0 30 -11 56.5t-32 46t-51 31t-67 11.5q-60 0 -107 -27t-87 -75l-46 42q45 55 102.5 88.5t140.5 33.5q52 0 94.5 -15.5t72.5 -43t46 -65t16 -80.5v-2q0 -49 -17 -86t-47 -63t-69.5 -41.5t-84.5 -21.5l-10 -120h-44zM218 100h84
v-100h-84v100z" />
    <glyph glyph-name="at" unicode="@" horiz-adv-x="1029" 
d="M524 -168q-100 0 -185 36t-147 97.5t-97 144t-35 175.5t35.5 176t97 145t144.5 98t179 36q95 0 178 -33.5t144 -90t96 -131t35 -156.5q0 -67 -17 -115t-44.5 -79t-62 -45.5t-68.5 -14.5q-56 0 -93 24.5t-51 66.5q-31 -38 -72.5 -64.5t-101.5 -26.5q-38 0 -72 13.5t-59 38
t-39.5 59t-14.5 76.5q0 56 21 103.5t55 82t77.5 54t87.5 19.5q61 0 97.5 -27.5t55.5 -61.5l14 75l61 -9l-40 -228q-9 -50 -9 -69q0 -42 24 -64.5t67 -22.5q27 0 53.5 12.5t47.5 39t33.5 67t12.5 96.5q0 71 -31.5 139t-87 121t-132 85t-165.5 32q-90 0 -166.5 -33.5
t-133 -90.5t-88 -133.5t-31.5 -163.5t31.5 -163.5t88 -133t135 -89.5t172.5 -33q78 0 138.5 18t120.5 53l17 -27q-61 -37 -128 -57.5t-148 -20.5zM471 132q33 0 63.5 14.5t53.5 37.5q28 28 44.5 64.5t16.5 76.5q0 30 -10 55t-27.5 43.5t-41.5 29t-52 10.5q-33 0 -64 -14
t-56 -39q-26 -26 -42.5 -63t-16.5 -80q0 -64 37 -99.5t95 -35.5z" />
    <glyph glyph-name="A" unicode="A" horiz-adv-x="832" 
d="M383 733h66l335 -733h-76l-88 198h-411l-89 -198h-72zM592 261l-177 393l-178 -393h355z" />
    <glyph glyph-name="A" unicode="&#x1fa;" horiz-adv-x="832" 
d="M383 733h66l335 -733h-76l-88 198h-411l-89 -198h-72zM592 261l-177 393l-178 -393h355z" />
    <glyph glyph-name="A" unicode="&#x104;" horiz-adv-x="832" 
d="M383 733h66l335 -733h-76l-88 198h-411l-89 -198h-72zM592 261l-177 393l-178 -393h355z" />
    <glyph glyph-name="A" unicode="&#x102;" horiz-adv-x="832" 
d="M383 733h66l335 -733h-76l-88 198h-411l-89 -198h-72zM592 261l-177 393l-178 -393h355z" />
    <glyph glyph-name="A" unicode="&#x100;" horiz-adv-x="832" 
d="M383 733h66l335 -733h-76l-88 198h-411l-89 -198h-72zM592 261l-177 393l-178 -393h355z" />
    <glyph glyph-name="B" unicode="B" horiz-adv-x="761" 
d="M110 728h306q63 0 111 -17t79 -47q23 -23 35 -52t12 -64v-2q0 -36 -10.5 -64t-27.5 -48.5t-38.5 -35t-43.5 -23.5q33 -9 62 -23.5t50.5 -35.5t34.5 -49.5t13 -65.5v-2q0 -47 -18.5 -83.5t-53 -62.5t-83 -39.5t-107.5 -13.5h-321v728zM582 539q0 57 -44 91.5t-126 34.5
h-233v-267h227q39 0 71 9t55.5 26.5t36.5 43.5t13 60v2zM623 204q0 63 -52.5 97.5t-153.5 34.5h-238v-273h253q88 0 139.5 37t51.5 102v2z" />
    <glyph glyph-name="C" unicode="C" horiz-adv-x="782" 
d="M441 -12q-78 0 -144.5 29t-115 79.5t-76 119t-27.5 146.5v2q0 77 27.5 145.5t76 119.5t115.5 81t147 30q49 0 89 -8.5t74 -23.5t63.5 -36.5t57.5 -46.5l-48 -52q-47 45 -103 74.5t-134 29.5q-63 0 -116.5 -24t-92.5 -66t-61 -99t-22 -122v-2q0 -66 22.5 -123t62 -99
t93 -66.5t115.5 -24.5q76 0 132 28.5t110 80.5l46 -45q-29 -29 -59.5 -52.5t-65.5 -40t-76 -25.5t-90 -9z" />
    <glyph glyph-name="C" unicode="&#x10c;" horiz-adv-x="782" 
d="M441 -12q-78 0 -144.5 29t-115 79.5t-76 119t-27.5 146.5v2q0 77 27.5 145.5t76 119.5t115.5 81t147 30q49 0 89 -8.5t74 -23.5t63.5 -36.5t57.5 -46.5l-48 -52q-47 45 -103 74.5t-134 29.5q-63 0 -116.5 -24t-92.5 -66t-61 -99t-22 -122v-2q0 -66 22.5 -123t62 -99
t93 -66.5t115.5 -24.5q76 0 132 28.5t110 80.5l46 -45q-29 -29 -59.5 -52.5t-65.5 -40t-76 -25.5t-90 -9z" />
    <glyph glyph-name="C" unicode="&#x10a;" horiz-adv-x="782" 
d="M441 -12q-78 0 -144.5 29t-115 79.5t-76 119t-27.5 146.5v2q0 77 27.5 145.5t76 119.5t115.5 81t147 30q49 0 89 -8.5t74 -23.5t63.5 -36.5t57.5 -46.5l-48 -52q-47 45 -103 74.5t-134 29.5q-63 0 -116.5 -24t-92.5 -66t-61 -99t-22 -122v-2q0 -66 22.5 -123t62 -99
t93 -66.5t115.5 -24.5q76 0 132 28.5t110 80.5l46 -45q-29 -29 -59.5 -52.5t-65.5 -40t-76 -25.5t-90 -9z" />
    <glyph glyph-name="C" unicode="&#x106;" horiz-adv-x="782" 
d="M441 -12q-78 0 -144.5 29t-115 79.5t-76 119t-27.5 146.5v2q0 77 27.5 145.5t76 119.5t115.5 81t147 30q49 0 89 -8.5t74 -23.5t63.5 -36.5t57.5 -46.5l-48 -52q-47 45 -103 74.5t-134 29.5q-63 0 -116.5 -24t-92.5 -66t-61 -99t-22 -122v-2q0 -66 22.5 -123t62 -99
t93 -66.5t115.5 -24.5q76 0 132 28.5t110 80.5l46 -45q-29 -29 -59.5 -52.5t-65.5 -40t-76 -25.5t-90 -9z" />
    <glyph glyph-name="D" unicode="D" horiz-adv-x="823" 
d="M110 728h249q85 0 156 -27.5t122 -76.5t79.5 -115t28.5 -143v-2q0 -77 -28.5 -143.5t-79.5 -115.5t-122 -77t-156 -28h-249v728zM180 664v-600h179q72 0 130 23t99 63.5t63 94.5t22 117v2q0 62 -22 117t-63 95.5t-99 64t-130 23.5h-179z" />
    <glyph glyph-name="D" unicode="&#x110;" horiz-adv-x="823" 
d="M110 728h249q85 0 156 -27.5t122 -76.5t79.5 -115t28.5 -143v-2q0 -77 -28.5 -143.5t-79.5 -115.5t-122 -77t-156 -28h-249v728zM180 664v-600h179q72 0 130 23t99 63.5t63 94.5t22 117v2q0 62 -22 117t-63 95.5t-99 64t-130 23.5h-179z" />
    <glyph glyph-name="D" unicode="&#x10e;" horiz-adv-x="823" 
d="M110 728h249q85 0 156 -27.5t122 -76.5t79.5 -115t28.5 -143v-2q0 -77 -28.5 -143.5t-79.5 -115.5t-122 -77t-156 -28h-249v728zM180 664v-600h179q72 0 130 23t99 63.5t63 94.5t22 117v2q0 62 -22 117t-63 95.5t-99 64t-130 23.5h-179z" />
    <glyph glyph-name="E" unicode="E" horiz-adv-x="707" 
d="M110 728h523v-64h-453v-265h406v-64h-406v-271h458v-64h-528v728z" />
    <glyph glyph-name="F" unicode="F" horiz-adv-x="692" 
d="M110 728h519v-64h-449v-277h402v-64h-402v-323h-70v728z" />
    <glyph glyph-name="G" unicode="G" horiz-adv-x="825" 
d="M446 -12q-86 0 -154 29.5t-115.5 80t-73 118.5t-25.5 146v2q0 74 26 142t73.5 120t114.5 83t149 31q45 0 82.5 -6.5t69.5 -18.5t61 -30t56 -41l-45 -53q-21 19 -44.5 34.5t-51 27t-60 18t-72.5 6.5q-63 0 -115.5 -25t-90.5 -67.5t-59 -99t-21 -119.5v-2
q0 -68 20.5 -125.5t59 -99.5t94 -65.5t124.5 -23.5q66 0 124 22.5t96 54.5v194h-231v63h298v-286q-25 -22 -56.5 -42t-68.5 -35t-78.5 -24t-86.5 -9z" />
    <glyph glyph-name="G" unicode="&#x122;" horiz-adv-x="825" 
d="M446 -12q-86 0 -154 29.5t-115.5 80t-73 118.5t-25.5 146v2q0 74 26 142t73.5 120t114.5 83t149 31q45 0 82.5 -6.5t69.5 -18.5t61 -30t56 -41l-45 -53q-21 19 -44.5 34.5t-51 27t-60 18t-72.5 6.5q-63 0 -115.5 -25t-90.5 -67.5t-59 -99t-21 -119.5v-2
q0 -68 20.5 -125.5t59 -99.5t94 -65.5t124.5 -23.5q66 0 124 22.5t96 54.5v194h-231v63h298v-286q-25 -22 -56.5 -42t-68.5 -35t-78.5 -24t-86.5 -9z" />
    <glyph glyph-name="G" unicode="&#x120;" horiz-adv-x="825" 
d="M446 -12q-86 0 -154 29.5t-115.5 80t-73 118.5t-25.5 146v2q0 74 26 142t73.5 120t114.5 83t149 31q45 0 82.5 -6.5t69.5 -18.5t61 -30t56 -41l-45 -53q-21 19 -44.5 34.5t-51 27t-60 18t-72.5 6.5q-63 0 -115.5 -25t-90.5 -67.5t-59 -99t-21 -119.5v-2
q0 -68 20.5 -125.5t59 -99.5t94 -65.5t124.5 -23.5q66 0 124 22.5t96 54.5v194h-231v63h298v-286q-25 -22 -56.5 -42t-68.5 -35t-78.5 -24t-86.5 -9z" />
    <glyph glyph-name="G" unicode="&#x11e;" horiz-adv-x="825" 
d="M446 -12q-86 0 -154 29.5t-115.5 80t-73 118.5t-25.5 146v2q0 74 26 142t73.5 120t114.5 83t149 31q45 0 82.5 -6.5t69.5 -18.5t61 -30t56 -41l-45 -53q-21 19 -44.5 34.5t-51 27t-60 18t-72.5 6.5q-63 0 -115.5 -25t-90.5 -67.5t-59 -99t-21 -119.5v-2
q0 -68 20.5 -125.5t59 -99.5t94 -65.5t124.5 -23.5q66 0 124 22.5t96 54.5v194h-231v63h298v-286q-25 -22 -56.5 -42t-68.5 -35t-78.5 -24t-86.5 -9z" />
    <glyph glyph-name="H" unicode="H" horiz-adv-x="800" 
d="M110 728h70v-330h440v330h70v-728h-70v334h-440v-334h-70v728z" />
    <glyph glyph-name="I" unicode="I" horiz-adv-x="305" 
d="M117 728h70v-728h-70v728z" />
    <glyph glyph-name="J" unicode="J" horiz-adv-x="583" 
d="M263 -10q-82 0 -135.5 37t-87.5 95l53 41q33 -54 72.5 -82t99.5 -28q64 0 106.5 46.5t42.5 137.5v491h71v-489q0 -63 -18 -111t-49 -79q-61 -59 -155 -59z" />
    <glyph glyph-name="K" unicode="K" horiz-adv-x="756" 
d="M110 728h70v-454l438 454h93l-316 -319l329 -409h-89l-289 359l-166 -168v-191h-70v728z" />
    <glyph glyph-name="K" unicode="&#x136;" horiz-adv-x="756" 
d="M110 728h70v-454l438 454h93l-316 -319l329 -409h-89l-289 359l-166 -168v-191h-70v728z" />
    <glyph glyph-name="L" unicode="L" horiz-adv-x="649" 
d="M110 728h70v-664h418v-64h-488v728z" />
    <glyph glyph-name="L" unicode="&#x13f;" horiz-adv-x="649" 
d="M110 728h70v-664h418v-64h-488v728z" />
    <glyph glyph-name="L" unicode="&#x13d;" horiz-adv-x="649" 
d="M110 728h70v-664h418v-64h-488v728z" />
    <glyph glyph-name="L" unicode="&#x13b;" horiz-adv-x="649" 
d="M110 728h70v-664h418v-64h-488v728z" />
    <glyph glyph-name="L" unicode="&#x139;" horiz-adv-x="649" 
d="M110 728h70v-664h418v-64h-488v728z" />
    <glyph glyph-name="M" unicode="M" horiz-adv-x="913" 
d="M110 728h69l277 -412l277 412h70v-728h-70v609l-276 -403h-4l-275 402v-608h-68v728z" />
    <glyph glyph-name="N" unicode="N" horiz-adv-x="832" 
d="M110 728h66l478 -606v606h68v-728h-55l-489 619v-619h-68v728z" />
    <glyph glyph-name="O" unicode="O" horiz-adv-x="894" 
d="M446 -12q-83 0 -151 30.5t-116 81.5t-74.5 119t-26.5 143v2q0 75 26.5 143t75.5 120t117 82.5t151 30.5t151 -30.5t116 -81.5t74.5 -119t26.5 -143v-2q0 -75 -26.5 -143t-75.5 -120t-117 -82.5t-151 -30.5zM448 51q64 0 118.5 24.5t93.5 66.5t61 98.5t22 121.5v2
q0 64 -22 121t-62 100t-94.5 67.5t-118.5 24.5q-65 0 -119 -24.5t-93 -66.5t-61 -99t-22 -121v-2q0 -65 22 -121.5t62 -99.5t94 -67.5t119 -24.5z" />
    <glyph glyph-name="O" unicode="&#x1fe;" horiz-adv-x="894" 
d="M446 -12q-83 0 -151 30.5t-116 81.5t-74.5 119t-26.5 143v2q0 75 26.5 143t75.5 120t117 82.5t151 30.5t151 -30.5t116 -81.5t74.5 -119t26.5 -143v-2q0 -75 -26.5 -143t-75.5 -120t-117 -82.5t-151 -30.5zM448 51q64 0 118.5 24.5t93.5 66.5t61 98.5t22 121.5v2
q0 64 -22 121t-62 100t-94.5 67.5t-118.5 24.5q-65 0 -119 -24.5t-93 -66.5t-61 -99t-22 -121v-2q0 -65 22 -121.5t62 -99.5t94 -67.5t119 -24.5z" />
    <glyph glyph-name="O" unicode="&#x150;" horiz-adv-x="894" 
d="M446 -12q-83 0 -151 30.5t-116 81.5t-74.5 119t-26.5 143v2q0 75 26.5 143t75.5 120t117 82.5t151 30.5t151 -30.5t116 -81.5t74.5 -119t26.5 -143v-2q0 -75 -26.5 -143t-75.5 -120t-117 -82.5t-151 -30.5zM448 51q64 0 118.5 24.5t93.5 66.5t61 98.5t22 121.5v2
q0 64 -22 121t-62 100t-94.5 67.5t-118.5 24.5q-65 0 -119 -24.5t-93 -66.5t-61 -99t-22 -121v-2q0 -65 22 -121.5t62 -99.5t94 -67.5t119 -24.5z" />
    <glyph glyph-name="O" unicode="&#x14e;" horiz-adv-x="894" 
d="M446 -12q-83 0 -151 30.5t-116 81.5t-74.5 119t-26.5 143v2q0 75 26.5 143t75.5 120t117 82.5t151 30.5t151 -30.5t116 -81.5t74.5 -119t26.5 -143v-2q0 -75 -26.5 -143t-75.5 -120t-117 -82.5t-151 -30.5zM448 51q64 0 118.5 24.5t93.5 66.5t61 98.5t22 121.5v2
q0 64 -22 121t-62 100t-94.5 67.5t-118.5 24.5q-65 0 -119 -24.5t-93 -66.5t-61 -99t-22 -121v-2q0 -65 22 -121.5t62 -99.5t94 -67.5t119 -24.5z" />
    <glyph glyph-name="O" unicode="&#x14c;" horiz-adv-x="894" 
d="M446 -12q-83 0 -151 30.5t-116 81.5t-74.5 119t-26.5 143v2q0 75 26.5 143t75.5 120t117 82.5t151 30.5t151 -30.5t116 -81.5t74.5 -119t26.5 -143v-2q0 -75 -26.5 -143t-75.5 -120t-117 -82.5t-151 -30.5zM448 51q64 0 118.5 24.5t93.5 66.5t61 98.5t22 121.5v2
q0 64 -22 121t-62 100t-94.5 67.5t-118.5 24.5q-65 0 -119 -24.5t-93 -66.5t-61 -99t-22 -121v-2q0 -65 22 -121.5t62 -99.5t94 -67.5t119 -24.5z" />
    <glyph glyph-name="P" unicode="P" horiz-adv-x="705" 
d="M110 728h269q61 0 111 -15.5t86 -45t55.5 -71.5t19.5 -95v-2q0 -58 -23 -102t-62 -74t-91 -45t-110 -15h-185v-263h-70v728zM369 327q48 0 87 12t66.5 34.5t43 53.5t15.5 69v2q0 41 -15 72t-42.5 52t-65.5 31.5t-84 10.5h-194v-337h189z" />
    <glyph glyph-name="Q" unicode="Q" horiz-adv-x="894" 
d="M777 -22l-99 90q-47 -38 -105 -59t-127 -21q-83 0 -151 30.5t-116 81.5t-74.5 119t-26.5 143v2q0 75 26.5 143t75.5 120t117 82.5t151 30.5t151 -30.5t116 -81.5t74.5 -119t26.5 -143v-2q0 -70 -23.5 -134t-66.5 -115l99 -84zM448 51q52 0 97.5 15.5t81.5 44.5l-138 119
l48 54l138 -126q32 42 50 93.5t18 110.5v2q0 64 -22 121t-62 100t-94.5 67.5t-118.5 24.5q-65 0 -119 -24.5t-93 -66.5t-61 -99t-22 -121v-2q0 -65 22 -121.5t62 -99.5t94 -67.5t119 -24.5z" />
    <glyph glyph-name="R" unicode="R" horiz-adv-x="762" 
d="M110 728h310q68 0 120.5 -19.5t85.5 -52.5q26 -26 41 -62t15 -78v-2q0 -45 -15.5 -81t-42.5 -62.5t-64.5 -43.5t-82.5 -24l231 -303h-86l-221 291h-221v-291h-70v728zM413 354q43 0 79.5 10.5t63 31t41.5 49.5t15 66v2q0 70 -51.5 110.5t-145.5 40.5h-235v-310h233z" />
    <glyph glyph-name="R" unicode="&#x158;" horiz-adv-x="762" 
d="M110 728h310q68 0 120.5 -19.5t85.5 -52.5q26 -26 41 -62t15 -78v-2q0 -45 -15.5 -81t-42.5 -62.5t-64.5 -43.5t-82.5 -24l231 -303h-86l-221 291h-221v-291h-70v728zM413 354q43 0 79.5 10.5t63 31t41.5 49.5t15 66v2q0 70 -51.5 110.5t-145.5 40.5h-235v-310h233z" />
    <glyph glyph-name="R" unicode="&#x156;" horiz-adv-x="762" 
d="M110 728h310q68 0 120.5 -19.5t85.5 -52.5q26 -26 41 -62t15 -78v-2q0 -45 -15.5 -81t-42.5 -62.5t-64.5 -43.5t-82.5 -24l231 -303h-86l-221 291h-221v-291h-70v728zM413 354q43 0 79.5 10.5t63 31t41.5 49.5t15 66v2q0 70 -51.5 110.5t-145.5 40.5h-235v-310h233z" />
    <glyph glyph-name="R" unicode="&#x154;" horiz-adv-x="762" 
d="M110 728h310q68 0 120.5 -19.5t85.5 -52.5q26 -26 41 -62t15 -78v-2q0 -45 -15.5 -81t-42.5 -62.5t-64.5 -43.5t-82.5 -24l231 -303h-86l-221 291h-221v-291h-70v728zM413 354q43 0 79.5 10.5t63 31t41.5 49.5t15 66v2q0 70 -51.5 110.5t-145.5 40.5h-235v-310h233z" />
    <glyph glyph-name="S" unicode="S" horiz-adv-x="676" 
d="M358 -10q-87 0 -158 28.5t-137 87.5l44 52q58 -53 117.5 -79.5t137.5 -26.5q38 0 70 10t54.5 28t35 42.5t12.5 53.5v2q0 27 -8.5 48t-30.5 38.5t-60 32t-98 26.5q-64 13 -110.5 31t-76.5 43t-44 57.5t-14 76.5v2q0 42 18 77.5t49.5 62t75 41t94.5 14.5q80 0 138.5 -22
t114.5 -67l-42 -54q-51 43 -103 62t-110 19q-38 0 -68 -10t-52 -27.5t-33.5 -40.5t-11.5 -49v-2q0 -27 8.5 -48.5t31 -39.5t62.5 -33t102 -28q124 -26 181 -74t57 -130v-2q0 -45 -18.5 -82.5t-51 -64t-77.5 -41t-99 -14.5z" />
    <glyph glyph-name="S" unicode="&#x218;" horiz-adv-x="676" 
d="M358 -10q-87 0 -158 28.5t-137 87.5l44 52q58 -53 117.5 -79.5t137.5 -26.5q38 0 70 10t54.5 28t35 42.5t12.5 53.5v2q0 27 -8.5 48t-30.5 38.5t-60 32t-98 26.5q-64 13 -110.5 31t-76.5 43t-44 57.5t-14 76.5v2q0 42 18 77.5t49.5 62t75 41t94.5 14.5q80 0 138.5 -22
t114.5 -67l-42 -54q-51 43 -103 62t-110 19q-38 0 -68 -10t-52 -27.5t-33.5 -40.5t-11.5 -49v-2q0 -27 8.5 -48.5t31 -39.5t62.5 -33t102 -28q124 -26 181 -74t57 -130v-2q0 -45 -18.5 -82.5t-51 -64t-77.5 -41t-99 -14.5z" />
    <glyph glyph-name="S" unicode="&#x15e;" horiz-adv-x="676" 
d="M358 -10q-87 0 -158 28.5t-137 87.5l44 52q58 -53 117.5 -79.5t137.5 -26.5q38 0 70 10t54.5 28t35 42.5t12.5 53.5v2q0 27 -8.5 48t-30.5 38.5t-60 32t-98 26.5q-64 13 -110.5 31t-76.5 43t-44 57.5t-14 76.5v2q0 42 18 77.5t49.5 62t75 41t94.5 14.5q80 0 138.5 -22
t114.5 -67l-42 -54q-51 43 -103 62t-110 19q-38 0 -68 -10t-52 -27.5t-33.5 -40.5t-11.5 -49v-2q0 -27 8.5 -48.5t31 -39.5t62.5 -33t102 -28q124 -26 181 -74t57 -130v-2q0 -45 -18.5 -82.5t-51 -64t-77.5 -41t-99 -14.5z" />
    <glyph glyph-name="S" unicode="&#x15a;" horiz-adv-x="676" 
d="M358 -10q-87 0 -158 28.5t-137 87.5l44 52q58 -53 117.5 -79.5t137.5 -26.5q38 0 70 10t54.5 28t35 42.5t12.5 53.5v2q0 27 -8.5 48t-30.5 38.5t-60 32t-98 26.5q-64 13 -110.5 31t-76.5 43t-44 57.5t-14 76.5v2q0 42 18 77.5t49.5 62t75 41t94.5 14.5q80 0 138.5 -22
t114.5 -67l-42 -54q-51 43 -103 62t-110 19q-38 0 -68 -10t-52 -27.5t-33.5 -40.5t-11.5 -49v-2q0 -27 8.5 -48.5t31 -39.5t62.5 -33t102 -28q124 -26 181 -74t57 -130v-2q0 -45 -18.5 -82.5t-51 -64t-77.5 -41t-99 -14.5z" />
    <glyph glyph-name="T" unicode="T" horiz-adv-x="675" 
d="M303 663h-249v65h567v-65h-248v-663h-70v663z" />
    <glyph glyph-name="T" unicode="&#x21a;" horiz-adv-x="675" 
d="M303 663h-249v65h567v-65h-248v-663h-70v663z" />
    <glyph glyph-name="T" unicode="&#x164;" horiz-adv-x="675" 
d="M303 663h-249v65h567v-65h-248v-663h-70v663z" />
    <glyph glyph-name="T" unicode="&#x162;" horiz-adv-x="675" 
d="M303 663h-249v65h567v-65h-248v-663h-70v663z" />
    <glyph glyph-name="U" unicode="U" horiz-adv-x="800" 
d="M400 -11q-67 0 -122.5 20.5t-95 60t-61.5 98.5t-22 136v424h70v-419q0 -124 61.5 -190.5t171.5 -66.5q105 0 167 63.5t62 188.5v424h70v-418q0 -79 -22 -139t-61.5 -100.5t-95 -61t-122.5 -20.5z" />
    <glyph glyph-name="U" unicode="&#x172;" horiz-adv-x="800" 
d="M400 -11q-67 0 -122.5 20.5t-95 60t-61.5 98.5t-22 136v424h70v-419q0 -124 61.5 -190.5t171.5 -66.5q105 0 167 63.5t62 188.5v424h70v-418q0 -79 -22 -139t-61.5 -100.5t-95 -61t-122.5 -20.5z" />
    <glyph glyph-name="U" unicode="&#x170;" horiz-adv-x="800" 
d="M400 -11q-67 0 -122.5 20.5t-95 60t-61.5 98.5t-22 136v424h70v-419q0 -124 61.5 -190.5t171.5 -66.5q105 0 167 63.5t62 188.5v424h70v-418q0 -79 -22 -139t-61.5 -100.5t-95 -61t-122.5 -20.5z" />
    <glyph glyph-name="U" unicode="&#x16e;" horiz-adv-x="800" 
d="M400 -11q-67 0 -122.5 20.5t-95 60t-61.5 98.5t-22 136v424h70v-419q0 -124 61.5 -190.5t171.5 -66.5q105 0 167 63.5t62 188.5v424h70v-418q0 -79 -22 -139t-61.5 -100.5t-95 -61t-122.5 -20.5z" />
    <glyph glyph-name="U" unicode="&#x16c;" horiz-adv-x="800" 
d="M400 -11q-67 0 -122.5 20.5t-95 60t-61.5 98.5t-22 136v424h70v-419q0 -124 61.5 -190.5t171.5 -66.5q105 0 167 63.5t62 188.5v424h70v-418q0 -79 -22 -139t-61.5 -100.5t-95 -61t-122.5 -20.5z" />
    <glyph glyph-name="U" unicode="&#x16a;" horiz-adv-x="800" 
d="M400 -11q-67 0 -122.5 20.5t-95 60t-61.5 98.5t-22 136v424h70v-419q0 -124 61.5 -190.5t171.5 -66.5q105 0 167 63.5t62 188.5v424h70v-418q0 -79 -22 -139t-61.5 -100.5t-95 -61t-122.5 -20.5z" />
    <glyph glyph-name="V" unicode="V" horiz-adv-x="790" 
d="M48 728h77l271 -646l272 646h74l-316 -733h-62z" />
    <glyph glyph-name="W" unicode="W" horiz-adv-x="1159" 
d="M54 728h77l217 -625l206 627h56l205 -627l217 625h73l-261 -733h-59l-205 609l-206 -609h-58z" />
    <glyph glyph-name="W" unicode="&#x1e84;" horiz-adv-x="1159" 
d="M54 728h77l217 -625l206 627h56l205 -627l217 625h73l-261 -733h-59l-205 609l-206 -609h-58z" />
    <glyph glyph-name="W" unicode="&#x1e82;" horiz-adv-x="1159" 
d="M54 728h77l217 -625l206 627h56l205 -627l217 625h73l-261 -733h-59l-205 609l-206 -609h-58z" />
    <glyph glyph-name="W" unicode="&#x1e80;" horiz-adv-x="1159" 
d="M54 728h77l217 -625l206 627h56l205 -627l217 625h73l-261 -733h-59l-205 609l-206 -609h-58z" />
    <glyph glyph-name="W" unicode="&#x174;" horiz-adv-x="1159" 
d="M54 728h77l217 -625l206 627h56l205 -627l217 625h73l-261 -733h-59l-205 609l-206 -609h-58z" />
    <glyph glyph-name="X" unicode="X" horiz-adv-x="762" 
d="M697 728l-273 -357l284 -371h-83l-245 324l-244 -324h-81l284 371l-274 357h83l234 -310l234 310h81z" />
    <glyph glyph-name="Y" unicode="Y" horiz-adv-x="755" 
d="M342 288l-307 440h86l257 -376l259 376h82l-307 -439v-289h-70v288z" />
    <glyph glyph-name="Y" unicode="&#x1ef2;" horiz-adv-x="755" 
d="M342 288l-307 440h86l257 -376l259 376h82l-307 -439v-289h-70v288z" />
    <glyph glyph-name="Y" unicode="&#x176;" horiz-adv-x="755" 
d="M342 288l-307 440h86l257 -376l259 376h82l-307 -439v-289h-70v288z" />
    <glyph glyph-name="Z" unicode="Z" horiz-adv-x="729" 
d="M75 44l483 621h-466v63h563v-44l-484 -621h484v-63h-580v44z" />
    <glyph glyph-name="Z" unicode="&#x17b;" horiz-adv-x="729" 
d="M75 44l483 621h-466v63h563v-44l-484 -621h484v-63h-580v44z" />
    <glyph glyph-name="Z" unicode="&#x179;" horiz-adv-x="729" 
d="M75 44l483 621h-466v63h563v-44l-484 -621h484v-63h-580v44z" />
    <glyph glyph-name="bracketleft" unicode="[" horiz-adv-x="463" 
d="M105 728h291v-52h-228v-759h228v-52h-291v863z" />
    <glyph glyph-name="backslash" unicode="\" horiz-adv-x="535" 
d="M0 830h64l486 -963h-63z" />
    <glyph glyph-name="bracketright" unicode="]" horiz-adv-x="463" 
d="M66 -83h229v759h-229v52h292v-863h-292v52z" />
    <glyph glyph-name="underscore" unicode="_" horiz-adv-x="634" 
d="M3 -109h628v-57h-628v57z" />
    <glyph glyph-name="grave" unicode="`" 
d="M161 729l74 35l95 -145h-54z" />
    <glyph glyph-name="a" unicode="a" horiz-adv-x="610" 
d="M259 -12q-38 0 -74 10.5t-65 31.5t-46.5 52.5t-17.5 72.5v2q0 42 17 74.5t47.5 54t73 33t93.5 11.5q54 0 93 -6t76 -17v21q0 76 -43.5 115t-122.5 39q-48 0 -87.5 -11.5t-77.5 -29.5l-21 56q44 20 89.5 32.5t102.5 12.5q111 0 171 -58q27 -28 41 -65.5t14 -88.5v-330h-66
v84q-14 -19 -33 -36t-43 -30.5t-54.5 -21.5t-66.5 -8zM268 45q39 0 73.5 11t60.5 31.5t41 48.5t15 62v56q-32 8 -73.5 15.5t-95.5 7.5q-79 0 -121.5 -31.5t-42.5 -84.5v-3q0 -27 11.5 -48t31.5 -35.5t45.5 -22t54.5 -7.5z" />
    <glyph glyph-name="a" unicode="&#x1fb;" horiz-adv-x="610" 
d="M259 -12q-38 0 -74 10.5t-65 31.5t-46.5 52.5t-17.5 72.5v2q0 42 17 74.5t47.5 54t73 33t93.5 11.5q54 0 93 -6t76 -17v21q0 76 -43.5 115t-122.5 39q-48 0 -87.5 -11.5t-77.5 -29.5l-21 56q44 20 89.5 32.5t102.5 12.5q111 0 171 -58q27 -28 41 -65.5t14 -88.5v-330h-66
v84q-14 -19 -33 -36t-43 -30.5t-54.5 -21.5t-66.5 -8zM268 45q39 0 73.5 11t60.5 31.5t41 48.5t15 62v56q-32 8 -73.5 15.5t-95.5 7.5q-79 0 -121.5 -31.5t-42.5 -84.5v-3q0 -27 11.5 -48t31.5 -35.5t45.5 -22t54.5 -7.5z" />
    <glyph glyph-name="a" unicode="&#x105;" horiz-adv-x="610" 
d="M259 -12q-38 0 -74 10.5t-65 31.5t-46.5 52.5t-17.5 72.5v2q0 42 17 74.5t47.5 54t73 33t93.5 11.5q54 0 93 -6t76 -17v21q0 76 -43.5 115t-122.5 39q-48 0 -87.5 -11.5t-77.5 -29.5l-21 56q44 20 89.5 32.5t102.5 12.5q111 0 171 -58q27 -28 41 -65.5t14 -88.5v-330h-66
v84q-14 -19 -33 -36t-43 -30.5t-54.5 -21.5t-66.5 -8zM268 45q39 0 73.5 11t60.5 31.5t41 48.5t15 62v56q-32 8 -73.5 15.5t-95.5 7.5q-79 0 -121.5 -31.5t-42.5 -84.5v-3q0 -27 11.5 -48t31.5 -35.5t45.5 -22t54.5 -7.5z" />
    <glyph glyph-name="a" unicode="&#x103;" horiz-adv-x="610" 
d="M259 -12q-38 0 -74 10.5t-65 31.5t-46.5 52.5t-17.5 72.5v2q0 42 17 74.5t47.5 54t73 33t93.5 11.5q54 0 93 -6t76 -17v21q0 76 -43.5 115t-122.5 39q-48 0 -87.5 -11.5t-77.5 -29.5l-21 56q44 20 89.5 32.5t102.5 12.5q111 0 171 -58q27 -28 41 -65.5t14 -88.5v-330h-66
v84q-14 -19 -33 -36t-43 -30.5t-54.5 -21.5t-66.5 -8zM268 45q39 0 73.5 11t60.5 31.5t41 48.5t15 62v56q-32 8 -73.5 15.5t-95.5 7.5q-79 0 -121.5 -31.5t-42.5 -84.5v-3q0 -27 11.5 -48t31.5 -35.5t45.5 -22t54.5 -7.5z" />
    <glyph glyph-name="a" unicode="&#x101;" horiz-adv-x="610" 
d="M259 -12q-38 0 -74 10.5t-65 31.5t-46.5 52.5t-17.5 72.5v2q0 42 17 74.5t47.5 54t73 33t93.5 11.5q54 0 93 -6t76 -17v21q0 76 -43.5 115t-122.5 39q-48 0 -87.5 -11.5t-77.5 -29.5l-21 56q44 20 89.5 32.5t102.5 12.5q111 0 171 -58q27 -28 41 -65.5t14 -88.5v-330h-66
v84q-14 -19 -33 -36t-43 -30.5t-54.5 -21.5t-66.5 -8zM268 45q39 0 73.5 11t60.5 31.5t41 48.5t15 62v56q-32 8 -73.5 15.5t-95.5 7.5q-79 0 -121.5 -31.5t-42.5 -84.5v-3q0 -27 11.5 -48t31.5 -35.5t45.5 -22t54.5 -7.5z" />
    <glyph glyph-name="b" unicode="b" horiz-adv-x="699" 
d="M377 -12q-39 0 -70.5 10t-58 26.5t-47 38t-36.5 45.5v-108h-67v759h67v-337q17 25 38 47.5t47 40t57.5 27.5t69.5 10q48 0 94 -19t82.5 -54.5t58.5 -87t22 -117.5v-2q0 -66 -22 -117.5t-58.5 -87.5t-82.5 -55t-94 -19zM366 50q41 0 77 14.5t62.5 42.5t42 67.5t15.5 90.5
v2q0 50 -16 90t-43 68.5t-62.5 44t-75.5 15.5q-39 0 -76 -16t-65.5 -44.5t-45.5 -68.5t-17 -88v-2q0 -48 17 -88t45.5 -68.5t65.5 -44t76 -15.5z" />
    <glyph glyph-name="c" unicode="c" horiz-adv-x="604" 
d="M336 -12q-58 0 -108 22t-86.5 60t-57.5 88.5t-21 106.5v2q0 56 21 107t58 89.5t87 61t108 22.5q37 0 68 -8t57 -21.5t47.5 -31t40.5 -37.5l-45 -47q-33 34 -73 59t-97 25q-43 0 -80 -17t-64 -46.5t-42.5 -69t-15.5 -84.5v-2q0 -45 16 -85t44 -69.5t65.5 -46.5t81.5 -17
q54 0 96 24t74 60l44 -41q-41 -46 -92 -75t-126 -29z" />
    <glyph glyph-name="c" unicode="&#x10d;" horiz-adv-x="604" 
d="M336 -12q-58 0 -108 22t-86.5 60t-57.5 88.5t-21 106.5v2q0 56 21 107t58 89.5t87 61t108 22.5q37 0 68 -8t57 -21.5t47.5 -31t40.5 -37.5l-45 -47q-33 34 -73 59t-97 25q-43 0 -80 -17t-64 -46.5t-42.5 -69t-15.5 -84.5v-2q0 -45 16 -85t44 -69.5t65.5 -46.5t81.5 -17
q54 0 96 24t74 60l44 -41q-41 -46 -92 -75t-126 -29z" />
    <glyph glyph-name="c" unicode="&#x10b;" horiz-adv-x="604" 
d="M336 -12q-58 0 -108 22t-86.5 60t-57.5 88.5t-21 106.5v2q0 56 21 107t58 89.5t87 61t108 22.5q37 0 68 -8t57 -21.5t47.5 -31t40.5 -37.5l-45 -47q-33 34 -73 59t-97 25q-43 0 -80 -17t-64 -46.5t-42.5 -69t-15.5 -84.5v-2q0 -45 16 -85t44 -69.5t65.5 -46.5t81.5 -17
q54 0 96 24t74 60l44 -41q-41 -46 -92 -75t-126 -29z" />
    <glyph glyph-name="c" unicode="&#x107;" horiz-adv-x="604" 
d="M336 -12q-58 0 -108 22t-86.5 60t-57.5 88.5t-21 106.5v2q0 56 21 107t58 89.5t87 61t108 22.5q37 0 68 -8t57 -21.5t47.5 -31t40.5 -37.5l-45 -47q-33 34 -73 59t-97 25q-43 0 -80 -17t-64 -46.5t-42.5 -69t-15.5 -84.5v-2q0 -45 16 -85t44 -69.5t65.5 -46.5t81.5 -17
q54 0 96 24t74 60l44 -41q-41 -46 -92 -75t-126 -29z" />
    <glyph glyph-name="d" unicode="d" horiz-adv-x="699" 
d="M322 -12q-48 0 -94 19t-82.5 54.5t-58.5 87t-22 116.5v2q0 66 22 118t58.5 88t82.5 55t94 19q39 0 70.5 -10t58 -26.5t47 -38.5t36.5 -46v333h67v-759h-67v113q-17 -25 -38 -47.5t-47 -40t-57.5 -27.5t-69.5 -10zM333 50q39 0 75.5 15.5t65 44t46 68.5t17.5 88v2
q0 49 -17.5 89t-46 68.5t-65 44t-75.5 15.5q-41 0 -77 -15t-63 -42.5t-42.5 -67.5t-15.5 -91v-2q0 -50 16 -90t43 -68t63 -43.5t76 -15.5z" />
    <glyph glyph-name="e" unicode="e" horiz-adv-x="622" 
d="M328 -12q-54 0 -102 20t-84.5 56.5t-57.5 88t-21 113.5v2q0 58 19.5 109t53.5 88.5t80.5 59.5t101.5 22q58 0 104 -22t78 -60t49 -89.5t17 -110.5v-12q0 -4 -2 -12h-432q4 -46 21.5 -82t44.5 -61t61 -38t71 -13q58 0 100 22.5t75 57.5l43 -39q-41 -45 -92.5 -72.5
t-127.5 -27.5zM496 295q-3 38 -15.5 73t-35 61.5t-54.5 42.5t-75 16q-37 0 -69 -14.5t-56.5 -40.5t-39.5 -61t-19 -77h364z" />
    <glyph glyph-name="e" unicode="&#x11b;" horiz-adv-x="622" 
d="M328 -12q-54 0 -102 20t-84.5 56.5t-57.5 88t-21 113.5v2q0 58 19.5 109t53.5 88.5t80.5 59.5t101.5 22q58 0 104 -22t78 -60t49 -89.5t17 -110.5v-12q0 -4 -2 -12h-432q4 -46 21.5 -82t44.5 -61t61 -38t71 -13q58 0 100 22.5t75 57.5l43 -39q-41 -45 -92.5 -72.5
t-127.5 -27.5zM496 295q-3 38 -15.5 73t-35 61.5t-54.5 42.5t-75 16q-37 0 -69 -14.5t-56.5 -40.5t-39.5 -61t-19 -77h364z" />
    <glyph glyph-name="e" unicode="&#x119;" horiz-adv-x="622" 
d="M328 -12q-54 0 -102 20t-84.5 56.5t-57.5 88t-21 113.5v2q0 58 19.5 109t53.5 88.5t80.5 59.5t101.5 22q58 0 104 -22t78 -60t49 -89.5t17 -110.5v-12q0 -4 -2 -12h-432q4 -46 21.5 -82t44.5 -61t61 -38t71 -13q58 0 100 22.5t75 57.5l43 -39q-41 -45 -92.5 -72.5
t-127.5 -27.5zM496 295q-3 38 -15.5 73t-35 61.5t-54.5 42.5t-75 16q-37 0 -69 -14.5t-56.5 -40.5t-39.5 -61t-19 -77h364z" />
    <glyph glyph-name="e" unicode="&#x117;" horiz-adv-x="622" 
d="M328 -12q-54 0 -102 20t-84.5 56.5t-57.5 88t-21 113.5v2q0 58 19.5 109t53.5 88.5t80.5 59.5t101.5 22q58 0 104 -22t78 -60t49 -89.5t17 -110.5v-12q0 -4 -2 -12h-432q4 -46 21.5 -82t44.5 -61t61 -38t71 -13q58 0 100 22.5t75 57.5l43 -39q-41 -45 -92.5 -72.5
t-127.5 -27.5zM496 295q-3 38 -15.5 73t-35 61.5t-54.5 42.5t-75 16q-37 0 -69 -14.5t-56.5 -40.5t-39.5 -61t-19 -77h364z" />
    <glyph glyph-name="e" unicode="&#x115;" horiz-adv-x="622" 
d="M328 -12q-54 0 -102 20t-84.5 56.5t-57.5 88t-21 113.5v2q0 58 19.5 109t53.5 88.5t80.5 59.5t101.5 22q58 0 104 -22t78 -60t49 -89.5t17 -110.5v-12q0 -4 -2 -12h-432q4 -46 21.5 -82t44.5 -61t61 -38t71 -13q58 0 100 22.5t75 57.5l43 -39q-41 -45 -92.5 -72.5
t-127.5 -27.5zM496 295q-3 38 -15.5 73t-35 61.5t-54.5 42.5t-75 16q-37 0 -69 -14.5t-56.5 -40.5t-39.5 -61t-19 -77h364z" />
    <glyph glyph-name="e" unicode="&#x113;" horiz-adv-x="622" 
d="M328 -12q-54 0 -102 20t-84.5 56.5t-57.5 88t-21 113.5v2q0 58 19.5 109t53.5 88.5t80.5 59.5t101.5 22q58 0 104 -22t78 -60t49 -89.5t17 -110.5v-12q0 -4 -2 -12h-432q4 -46 21.5 -82t44.5 -61t61 -38t71 -13q58 0 100 22.5t75 57.5l43 -39q-41 -45 -92.5 -72.5
t-127.5 -27.5zM496 295q-3 38 -15.5 73t-35 61.5t-54.5 42.5t-75 16q-37 0 -69 -14.5t-56.5 -40.5t-39.5 -61t-19 -77h364z" />
    <glyph glyph-name="f" unicode="f" horiz-adv-x="390" 
d="M128 474h-75v60h75v49q0 46 12 80.5t35 57.5q42 42 114 42q26 0 45.5 -3.5t38.5 -9.5v-60q-22 7 -40 10t-38 3q-100 0 -100 -123v-46h177v-60h-177v-474h-67v474z" />
    <glyph glyph-name="g" unicode="g" horiz-adv-x="699" 
d="M333 -168q-134 0 -244 77l34 53q48 -35 100 -53t111 -18q45 0 81.5 12.5t63 37.5t41 62t14.5 86v69q-17 -24 -38.5 -45.5t-48 -37.5t-58.5 -25.5t-70 -9.5q-48 0 -94 17.5t-81.5 50.5t-57 79.5t-21.5 104.5v2q0 58 21.5 105t57.5 80t81.5 50.5t93.5 17.5q39 0 71 -9.5
t58.5 -25t47.5 -36.5t38 -43v101h67v-445q0 -61 -18 -107.5t-50 -78.5q-35 -35 -86 -53t-114 -18zM330 102q39 0 76.5 14t66.5 39t46.5 60t17.5 78v2q0 43 -17.5 78t-46.5 60t-66.5 38.5t-76.5 13.5q-40 0 -75.5 -13t-62 -38t-42 -60t-15.5 -79v-2q0 -42 16 -77.5
t42.5 -60.5t62 -39t74.5 -14z" />
    <glyph glyph-name="g" unicode="&#x123;" horiz-adv-x="699" 
d="M333 -168q-134 0 -244 77l34 53q48 -35 100 -53t111 -18q45 0 81.5 12.5t63 37.5t41 62t14.5 86v69q-17 -24 -38.5 -45.5t-48 -37.5t-58.5 -25.5t-70 -9.5q-48 0 -94 17.5t-81.5 50.5t-57 79.5t-21.5 104.5v2q0 58 21.5 105t57.5 80t81.5 50.5t93.5 17.5q39 0 71 -9.5
t58.5 -25t47.5 -36.5t38 -43v101h67v-445q0 -61 -18 -107.5t-50 -78.5q-35 -35 -86 -53t-114 -18zM330 102q39 0 76.5 14t66.5 39t46.5 60t17.5 78v2q0 43 -17.5 78t-46.5 60t-66.5 38.5t-76.5 13.5q-40 0 -75.5 -13t-62 -38t-42 -60t-15.5 -79v-2q0 -42 16 -77.5
t42.5 -60.5t62 -39t74.5 -14z" />
    <glyph glyph-name="g" unicode="&#x121;" horiz-adv-x="699" 
d="M333 -168q-134 0 -244 77l34 53q48 -35 100 -53t111 -18q45 0 81.5 12.5t63 37.5t41 62t14.5 86v69q-17 -24 -38.5 -45.5t-48 -37.5t-58.5 -25.5t-70 -9.5q-48 0 -94 17.5t-81.5 50.5t-57 79.5t-21.5 104.5v2q0 58 21.5 105t57.5 80t81.5 50.5t93.5 17.5q39 0 71 -9.5
t58.5 -25t47.5 -36.5t38 -43v101h67v-445q0 -61 -18 -107.5t-50 -78.5q-35 -35 -86 -53t-114 -18zM330 102q39 0 76.5 14t66.5 39t46.5 60t17.5 78v2q0 43 -17.5 78t-46.5 60t-66.5 38.5t-76.5 13.5q-40 0 -75.5 -13t-62 -38t-42 -60t-15.5 -79v-2q0 -42 16 -77.5
t42.5 -60.5t62 -39t74.5 -14z" />
    <glyph glyph-name="g" unicode="&#x11f;" horiz-adv-x="699" 
d="M333 -168q-134 0 -244 77l34 53q48 -35 100 -53t111 -18q45 0 81.5 12.5t63 37.5t41 62t14.5 86v69q-17 -24 -38.5 -45.5t-48 -37.5t-58.5 -25.5t-70 -9.5q-48 0 -94 17.5t-81.5 50.5t-57 79.5t-21.5 104.5v2q0 58 21.5 105t57.5 80t81.5 50.5t93.5 17.5q39 0 71 -9.5
t58.5 -25t47.5 -36.5t38 -43v101h67v-445q0 -61 -18 -107.5t-50 -78.5q-35 -35 -86 -53t-114 -18zM330 102q39 0 76.5 14t66.5 39t46.5 60t17.5 78v2q0 43 -17.5 78t-46.5 60t-66.5 38.5t-76.5 13.5q-40 0 -75.5 -13t-62 -38t-42 -60t-15.5 -79v-2q0 -42 16 -77.5
t42.5 -60.5t62 -39t74.5 -14z" />
    <glyph glyph-name="h" unicode="h" horiz-adv-x="649" 
d="M98 759h67v-320q26 45 71 76.5t116 31.5q49 0 88 -16t66 -45t41 -68.5t14 -87.5v-330h-67v314q0 79 -41.5 125t-116.5 46q-36 0 -67.5 -13t-54.5 -36.5t-36 -56.5t-13 -72v-307h-67v759z" />
    <glyph glyph-name="h" unicode="&#x127;" horiz-adv-x="649" 
d="M98 759h67v-320q26 45 71 76.5t116 31.5q49 0 88 -16t66 -45t41 -68.5t14 -87.5v-330h-67v314q0 79 -41.5 125t-116.5 46q-36 0 -67.5 -13t-54.5 -36.5t-36 -56.5t-13 -72v-307h-67v759z" />
    <glyph glyph-name="i" unicode="i" horiz-adv-x="277" 
d="M99 742h79v-81h-79v81zM105 534h67v-534h-67v534z" />
    <glyph glyph-name="i" unicode="&#x12f;" horiz-adv-x="277" 
d="M99 742h79v-81h-79v81zM105 534h67v-534h-67v534z" />
    <glyph glyph-name="i" unicode="&#x12d;" horiz-adv-x="277" 
d="M99 742h79v-81h-79v81zM105 534h67v-534h-67v534z" />
    <glyph glyph-name="i" unicode="&#x12b;" horiz-adv-x="277" 
d="M99 742h79v-81h-79v81zM105 534h67v-534h-67v534z" />
    <glyph glyph-name="j" unicode="j" horiz-adv-x="277" 
d="M99 742h79v-81h-79v81zM49 -170q-13 0 -23.5 1.5t-23.5 3.5v57q10 -2 21 -3t20 -1q28 0 45 17.5t17 55.5v573h67v-572q0 -68 -33 -100t-90 -32z" />
    <glyph glyph-name="k" unicode="k" horiz-adv-x="597" 
d="M98 759h67v-544l307 319h86l-229 -232l236 -302h-82l-200 254l-118 -119v-135h-67v759z" />
    <glyph glyph-name="k" unicode="&#x137;" horiz-adv-x="597" 
d="M98 759h67v-544l307 319h86l-229 -232l236 -302h-82l-200 254l-118 -119v-135h-67v759z" />
    <glyph glyph-name="l" unicode="l" horiz-adv-x="277" 
d="M105 759h67v-759h-67v759z" />
    <glyph glyph-name="l" unicode="&#x140;" horiz-adv-x="277" 
d="M105 759h67v-759h-67v759z" />
    <glyph glyph-name="l" unicode="&#x13e;" horiz-adv-x="277" 
d="M105 759h67v-759h-67v759z" />
    <glyph glyph-name="l" unicode="&#x13c;" horiz-adv-x="277" 
d="M105 759h67v-759h-67v759z" />
    <glyph glyph-name="l" unicode="&#x13a;" horiz-adv-x="277" 
d="M105 759h67v-759h-67v759z" />
    <glyph glyph-name="m" unicode="m" horiz-adv-x="999" 
d="M98 534h67v-92q13 20 28.5 39t36.5 33.5t48 23.5t62 9q67 0 110 -32.5t65 -78.5q14 22 32 42t41 35.5t52 24.5t65 9q47 0 84.5 -15.5t63.5 -44t40 -69t14 -90.5v-328h-67v314q0 82 -39 126.5t-108 44.5q-32 0 -60.5 -12t-50 -34.5t-34 -55t-12.5 -74.5v-309h-67v317
q0 79 -39 123.5t-107 44.5q-33 0 -62 -13.5t-50.5 -37.5t-33.5 -56.5t-12 -70.5v-307h-67v534z" />
    <glyph glyph-name="n" unicode="n" horiz-adv-x="649" 
d="M98 534h67v-95q26 45 71 76.5t116 31.5q49 0 88 -16t66 -45t41 -68.5t14 -87.5v-330h-67v314q0 79 -41.5 125t-116.5 46q-36 0 -67.5 -13t-54.5 -36.5t-36 -56.5t-13 -72v-307h-67v534z" />
    <glyph glyph-name="n" unicode="&#x148;" horiz-adv-x="649" 
d="M98 534h67v-95q26 45 71 76.5t116 31.5q49 0 88 -16t66 -45t41 -68.5t14 -87.5v-330h-67v314q0 79 -41.5 125t-116.5 46q-36 0 -67.5 -13t-54.5 -36.5t-36 -56.5t-13 -72v-307h-67v534z" />
    <glyph glyph-name="n" unicode="&#x146;" horiz-adv-x="649" 
d="M98 534h67v-95q26 45 71 76.5t116 31.5q49 0 88 -16t66 -45t41 -68.5t14 -87.5v-330h-67v314q0 79 -41.5 125t-116.5 46q-36 0 -67.5 -13t-54.5 -36.5t-36 -56.5t-13 -72v-307h-67v534z" />
    <glyph glyph-name="n" unicode="&#x144;" horiz-adv-x="649" 
d="M98 534h67v-95q26 45 71 76.5t116 31.5q49 0 88 -16t66 -45t41 -68.5t14 -87.5v-330h-67v314q0 79 -41.5 125t-116.5 46q-36 0 -67.5 -13t-54.5 -36.5t-36 -56.5t-13 -72v-307h-67v534z" />
    <glyph glyph-name="o" unicode="o" horiz-adv-x="679" 
d="M339 -12q-60 0 -110.5 22t-87.5 60t-57.5 88.5t-20.5 106.5v2q0 57 21 107.5t58 89t88 61t111 22.5t110.5 -22t87 -60t57.5 -88.5t21 -107.5v-2q0 -56 -21 -107t-58 -89t-88 -60.5t-111 -22.5zM341 49q45 0 82.5 17t65 46.5t42.5 69t15 83.5v2q0 45 -16 85t-43.5 70
t-65.5 47t-82 17q-45 0 -83 -17t-65.5 -46.5t-42.5 -69t-15 -84.5v-2q0 -45 16 -85t44 -69.5t66 -46.5t82 -17z" />
    <glyph glyph-name="o" unicode="&#x1ff;" horiz-adv-x="679" 
d="M339 -12q-60 0 -110.5 22t-87.5 60t-57.5 88.5t-20.5 106.5v2q0 57 21 107.5t58 89t88 61t111 22.5t110.5 -22t87 -60t57.5 -88.5t21 -107.5v-2q0 -56 -21 -107t-58 -89t-88 -60.5t-111 -22.5zM341 49q45 0 82.5 17t65 46.5t42.5 69t15 83.5v2q0 45 -16 85t-43.5 70
t-65.5 47t-82 17q-45 0 -83 -17t-65.5 -46.5t-42.5 -69t-15 -84.5v-2q0 -45 16 -85t44 -69.5t66 -46.5t82 -17z" />
    <glyph glyph-name="o" unicode="&#x151;" horiz-adv-x="679" 
d="M339 -12q-60 0 -110.5 22t-87.5 60t-57.5 88.5t-20.5 106.5v2q0 57 21 107.5t58 89t88 61t111 22.5t110.5 -22t87 -60t57.5 -88.5t21 -107.5v-2q0 -56 -21 -107t-58 -89t-88 -60.5t-111 -22.5zM341 49q45 0 82.5 17t65 46.5t42.5 69t15 83.5v2q0 45 -16 85t-43.5 70
t-65.5 47t-82 17q-45 0 -83 -17t-65.5 -46.5t-42.5 -69t-15 -84.5v-2q0 -45 16 -85t44 -69.5t66 -46.5t82 -17z" />
    <glyph glyph-name="o" unicode="&#x14f;" horiz-adv-x="679" 
d="M339 -12q-60 0 -110.5 22t-87.5 60t-57.5 88.5t-20.5 106.5v2q0 57 21 107.5t58 89t88 61t111 22.5t110.5 -22t87 -60t57.5 -88.5t21 -107.5v-2q0 -56 -21 -107t-58 -89t-88 -60.5t-111 -22.5zM341 49q45 0 82.5 17t65 46.5t42.5 69t15 83.5v2q0 45 -16 85t-43.5 70
t-65.5 47t-82 17q-45 0 -83 -17t-65.5 -46.5t-42.5 -69t-15 -84.5v-2q0 -45 16 -85t44 -69.5t66 -46.5t82 -17z" />
    <glyph glyph-name="o" unicode="&#x14d;" horiz-adv-x="679" 
d="M339 -12q-60 0 -110.5 22t-87.5 60t-57.5 88.5t-20.5 106.5v2q0 57 21 107.5t58 89t88 61t111 22.5t110.5 -22t87 -60t57.5 -88.5t21 -107.5v-2q0 -56 -21 -107t-58 -89t-88 -60.5t-111 -22.5zM341 49q45 0 82.5 17t65 46.5t42.5 69t15 83.5v2q0 45 -16 85t-43.5 70
t-65.5 47t-82 17q-45 0 -83 -17t-65.5 -46.5t-42.5 -69t-15 -84.5v-2q0 -45 16 -85t44 -69.5t66 -46.5t82 -17z" />
    <glyph glyph-name="p" unicode="p" horiz-adv-x="699" 
d="M98 534h67v-112q17 25 38 47.5t47 40t57.5 27.5t69.5 10q48 0 94 -19t82.5 -54.5t58.5 -87t22 -117.5v-2q0 -66 -22 -117.5t-58.5 -87.5t-82.5 -55t-94 -19q-39 0 -70.5 10t-58 26.5t-47 38t-36.5 45.5v-274h-67v700zM366 50q41 0 77 14.5t62.5 42.5t42 67.5t15.5 90.5v2
q0 50 -16 90t-43 68.5t-62.5 44t-75.5 15.5q-39 0 -76 -16t-65.5 -44.5t-45.5 -68.5t-17 -88v-2q0 -48 17 -88t45.5 -68.5t65.5 -44t76 -15.5z" />
    <glyph glyph-name="q" unicode="q" horiz-adv-x="699" 
d="M534 113q-17 -25 -38 -47.5t-47 -40t-57.5 -27.5t-69.5 -10q-48 0 -94 19t-82.5 54.5t-58.5 87t-22 116.5v2q0 66 22 118t58.5 88t82.5 55t94 19q39 0 70.5 -10t58 -26.5t47 -38.5t36.5 -46v108h67v-700h-67v279zM333 50q39 0 75.5 15.5t65 44t46 68.5t17.5 88v2
q0 49 -17.5 89t-46 68.5t-65 44t-75.5 15.5q-41 0 -77 -15t-63 -42.5t-42.5 -67.5t-15.5 -91v-2q0 -50 16 -90t43 -68t63 -43.5t76 -15.5z" />
    <glyph glyph-name="r" unicode="r" horiz-adv-x="429" 
d="M98 534h67v-145q15 34 37.5 63t51.5 50t63.5 31.5t73.5 9.5v-72h-5q-45 0 -85 -16.5t-70.5 -49t-48 -80t-17.5 -109.5v-216h-67v534z" />
    <glyph glyph-name="s" unicode="s" horiz-adv-x="528" 
d="M273 -10q-58 0 -117 21t-104 57l36 50q90 -69 188 -69q51 0 85 25t34 67v2q0 22 -11.5 37t-30 26.5t-43.5 19.5t-52 16q-32 9 -64 20t-57.5 27.5t-41.5 41t-16 60.5v2q0 34 13 62t37 48t57 31t72 11q48 0 99 -16t92 -44l-32 -52q-38 24 -79.5 38.5t-81.5 14.5
q-51 0 -81.5 -24t-30.5 -61v-2q0 -21 12 -35.5t32 -25.5t45.5 -19.5t53.5 -16.5q31 -9 62.5 -21t56 -29t40 -41.5t15.5 -60.5v-2q0 -37 -14.5 -66.5t-40 -49.5t-60 -31t-73.5 -11z" />
    <glyph glyph-name="t" unicode="t" horiz-adv-x="428" 
d="M276 -9q-32 0 -59 8.5t-47.5 26.5t-32 46t-11.5 68v334h-76v60h76v166h67v-166h178v-60h-178v-326q0 -53 27 -74.5t70 -21.5q20 0 38 4.5t40 14.5v-60q-21 -10 -42.5 -15t-49.5 -5z" />
    <glyph glyph-name="t" unicode="&#x21b;" horiz-adv-x="428" 
d="M276 -9q-32 0 -59 8.5t-47.5 26.5t-32 46t-11.5 68v334h-76v60h76v166h67v-166h178v-60h-178v-326q0 -53 27 -74.5t70 -21.5q20 0 38 4.5t40 14.5v-60q-21 -10 -42.5 -15t-49.5 -5z" />
    <glyph glyph-name="t" unicode="&#x165;" horiz-adv-x="428" 
d="M276 -9q-32 0 -59 8.5t-47.5 26.5t-32 46t-11.5 68v334h-76v60h76v166h67v-166h178v-60h-178v-326q0 -53 27 -74.5t70 -21.5q20 0 38 4.5t40 14.5v-60q-21 -10 -42.5 -15t-49.5 -5z" />
    <glyph glyph-name="t" unicode="&#x163;" horiz-adv-x="428" 
d="M276 -9q-32 0 -59 8.5t-47.5 26.5t-32 46t-11.5 68v334h-76v60h76v166h67v-166h178v-60h-178v-326q0 -53 27 -74.5t70 -21.5q20 0 38 4.5t40 14.5v-60q-21 -10 -42.5 -15t-49.5 -5z" />
    <glyph glyph-name="u" unicode="u" horiz-adv-x="649" 
d="M297 -12q-50 0 -88.5 16t-65.5 44.5t-41 68.5t-14 88v329h67v-314q0 -78 41.5 -124.5t116.5 -46.5q36 0 67.5 13t54.5 36.5t36 56.5t13 72v307h67v-534h-67v96q-26 -45 -71 -76.5t-116 -31.5z" />
    <glyph glyph-name="v" unicode="v" horiz-adv-x="618" 
d="M44 534h76l189 -458l191 458h74l-236 -538h-58z" />
    <glyph glyph-name="w" unicode="w" horiz-adv-x="905" 
d="M52 534h73l149 -446l152 449h55l152 -449l150 446h70l-191 -538h-58l-151 437l-152 -437h-58z" />
    <glyph glyph-name="x" unicode="x" horiz-adv-x="605" 
d="M303 318l168 216h77l-206 -260l215 -274h-80l-176 229l-176 -229h-77l214 272l-205 262h79z" />
    <glyph glyph-name="y" unicode="y" horiz-adv-x="623" 
d="M505 534h73l-228 -552q-17 -42 -36 -71t-40.5 -47t-46.5 -26t-54 -8q-32 0 -58 6.5t-53 19.5l23 55q20 -10 40 -15t47 -5q38 0 65.5 24.5t54.5 86.5l-249 532h75l207 -460z" />
    <glyph glyph-name="y" unicode="&#x1ef3;" horiz-adv-x="623" 
d="M505 534h73l-228 -552q-17 -42 -36 -71t-40.5 -47t-46.5 -26t-54 -8q-32 0 -58 6.5t-53 19.5l23 55q20 -10 40 -15t47 -5q38 0 65.5 24.5t54.5 86.5l-249 532h75l207 -460z" />
    <glyph glyph-name="y" unicode="&#x177;" horiz-adv-x="623" 
d="M505 534h73l-228 -552q-17 -42 -36 -71t-40.5 -47t-46.5 -26t-54 -8q-32 0 -58 6.5t-53 19.5l23 55q20 -10 40 -15t47 -5q38 0 65.5 24.5t54.5 86.5l-249 532h75l207 -460z" />
    <glyph glyph-name="z" unicode="z" horiz-adv-x="588" 
d="M64 41l369 435h-355v58h449v-41l-369 -435h369v-58h-463v41z" />
    <glyph glyph-name="braceleft" unicode="{" horiz-adv-x="511" 
d="M438 -147q-70 13 -113.5 32.5t-68 45.5t-33 59t-8.5 74v80q0 61 -26 95t-97 34h-27v51h27q71 0 97 34t26 95v80q0 40 8.5 73.5t33 59.5t68 45.5t113.5 32.5l10 -44q-57 -15 -90.5 -30.5t-50.5 -35.5t-22 -46t-5 -63v-78q0 -34 -7.5 -58.5t-21.5 -42t-34 -29t-45 -19.5
q26 -8 46.5 -19.5t34 -29t20.5 -41.5t7 -58v-78q0 -37 5 -63t22 -46t50.5 -35.5t90.5 -30.5z" />
    <glyph glyph-name="bar" unicode="|" horiz-adv-x="317" 
d="M130 830h58v-963h-58v963z" />
    <glyph glyph-name="braceright" unicode="}" horiz-adv-x="511" 
d="M63 -103q57 15 90.5 30.5t50.5 35.5t22 46t5 63v78q0 67 29 100t79 48q-26 9 -46.5 20.5t-34 29t-20.5 41.5t-7 58v78q0 37 -5 63t-22 46t-50.5 35.5t-90.5 30.5l10 44q70 -13 113.5 -32.5t68 -45.5t33 -59.5t8.5 -73.5v-80q0 -61 26 -95t97 -34h27v-51h-27
q-71 0 -97 -34t-26 -95v-80q0 -41 -8.5 -74t-33 -59t-68 -45.5t-113.5 -32.5z" />
    <glyph glyph-name="exclamdown" unicode="&#xa1;" horiz-adv-x="283" 
d="M100 728h83v-100h-83v100zM102 65l21 464h38l20 -464v-65h-79v65z" />
    <glyph glyph-name="cent" unicode="&#xa2;" horiz-adv-x="614" 
d="M413 640q40 -10 75 -32t67 -56l-45 -47q-28 28 -54.5 47t-57.5 28l-83 -427q7 -2 13 -2h15q54 0 96.5 24t75.5 60l43 -40q-41 -47 -92.5 -76t-125.5 -29h-18q-8 0 -16 2l-19 -98h-60l21 111q-40 14 -73 40t-57 60.5t-37.5 75.5t-13.5 86v2q0 57 21 107.5t58 89t87 61
t108 22.5h13l17 85h61zM137 369q0 -69 34.5 -123t91.5 -78l83 420h-7q-43 0 -80 -17t-64 -46t-42.5 -69t-15.5 -85v-2z" />
    <glyph glyph-name="sterling" unicode="&#xa3;" horiz-adv-x="680" 
d="M76 38l88 21v252h-88v63h88v116q0 59 17.5 107t49.5 80q29 29 69.5 45t90.5 16q41 0 74 -8.5t59.5 -23.5t48 -35t39.5 -44l-54 -42q-31 39 -68.5 64.5t-98.5 25.5q-35 0 -62 -11t-47 -31q-48 -48 -48 -142v-117h299v-63h-299v-249h378v-62h-536v38z" />
    <glyph glyph-name="yen" unicode="&#xa5;" horiz-adv-x="723" 
d="M111 334h195l-271 394h84l244 -370l245 370h80l-272 -394h196v-56h-217v-97h217v-56h-217v-125h-67v125h-217v56h217v97h-217v56z" />
    <glyph glyph-name="dieresis" unicode="&#xa8;" 
d="M311 711h84v-92h-84v92zM135 711h84v-92h-84v92z" />
    <glyph glyph-name="copyright" unicode="&#xa9;" horiz-adv-x="873" 
d="M436 -12q-80 0 -148.5 29.5t-119 80.5t-79.5 119t-29 145v2q0 77 29.5 145.5t80.5 119.5t120 81t148 30t147.5 -29.5t119 -80.5t79.5 -119t29 -145v-2q0 -77 -29 -145.5t-80 -119.5t-120 -81t-148 -30zM436 19q73 0 136 27.5t109.5 74.5t72.5 109.5t26 133.5v2
q0 71 -26 133.5t-72 109t-108.5 73.5t-135.5 27q-74 0 -137 -27.5t-109.5 -74.5t-72.5 -109.5t-26 -133.5v-2q0 -71 26 -133.5t72 -109t108.5 -73.5t136.5 -27zM441 171q-41 0 -76 15.5t-61 42.5t-40.5 62.5t-14.5 76.5v2q0 40 15 76t41 63t61 43t76 16q52 0 85.5 -18
t62.5 -45l-35 -37q-23 21 -50.5 36.5t-63.5 15.5q-30 0 -55.5 -12t-44 -32t-29 -47t-10.5 -58v-2q0 -31 11 -58t30 -47.5t44.5 -32.5t54.5 -12q38 0 64.5 14t52.5 39l34 -34q-31 -30 -65.5 -48.5t-86.5 -18.5z" />
    <glyph glyph-name="ordfeminine" unicode="&#xaa;" horiz-adv-x="416" 
d="M183 426q-21 0 -41 6t-36 17.5t-25.5 29t-9.5 40.5v2q0 47 35.5 72t92.5 25q27 0 47 -3t37 -8v5q0 38 -22 57t-61 19q-25 0 -46 -6.5t-44 -16.5l-15 39q26 13 51.5 20t57.5 7q60 0 95 -33q30 -32 30 -86v-180h-46v41q-17 -22 -42.5 -34.5t-57.5 -12.5zM188 466
q39 0 67.5 21t28.5 56v26q-17 5 -37 8t-47 3q-38 0 -59.5 -15.5t-21.5 -40.5v-2q0 -27 20.5 -41.5t48.5 -14.5zM67 348h267v-46h-267v46z" />
    <glyph glyph-name="guillemotleft" unicode="&#xab;" horiz-adv-x="566" 
d="M279 263v8l169 220l50 -30l-140 -193l140 -195l-50 -29zM56 263v8l170 220l49 -30l-140 -193l140 -195l-49 -29z" />
    <glyph glyph-name="registered" unicode="&#xae;" horiz-adv-x="435" 
d="M218 374q-38 0 -71 14.5t-57.5 39t-38.5 57.5t-14 70v1q0 37 14 70t38.5 58t57.5 39.5t71 14.5t71 -14.5t57.5 -39t38.5 -57.5t14 -70v-1q0 -37 -14 -70t-39 -58t-58 -39.5t-70 -14.5zM218 394q34 0 63 13t50.5 35t34 51.5t12.5 62.5v1q0 33 -12 62.5t-33.5 51.5t-51 35
t-63.5 13t-63.5 -13t-51 -35t-34 -52t-12.5 -63v-1q0 -33 12 -62.5t34 -51t51 -34.5t64 -13zM148 652h83q29 0 49 -14.5t20 -43.5v-1q0 -21 -12.5 -35.5t-31.5 -19.5l51 -70h-41l-44 65h-41v-65h-33v184zM228 560q19 0 29 9t10 23v1q0 14 -10.5 22.5t-28.5 7.5h-47v-63h47z
" />
    <glyph glyph-name="macron" unicode="&#xaf;" 
d="M107 700h316v-57h-316v57z" />
    <glyph glyph-name="degree" unicode="&#xb0;" horiz-adv-x="483" 
d="M241 422q-32 0 -60.5 12.5t-51 34t-35.5 49.5t-13 59v2q0 31 13 59t35.5 49.5t51 34t60.5 12.5q31 0 60.5 -12.5t51.5 -34t35.5 -49.5t13.5 -59v-2q0 -31 -13.5 -59t-35.5 -49.5t-51.5 -34t-60.5 -12.5zM241 472q22 0 41.5 8.5t33 23t21.5 33.5t8 40v2q0 21 -8 40
t-21.5 33.5t-33 23t-41.5 8.5t-41 -8.5t-32.5 -23t-21.5 -33.5t-8 -40v-2q0 -21 8 -40t21.5 -33.5t32.5 -23t41 -8.5z" />
    <glyph glyph-name="acute" unicode="&#xb4;" 
d="M295 764l74 -35l-115 -110h-54z" />
    <glyph glyph-name="periodcentered" unicode="&#xb7;" horiz-adv-x="258" 
d="M87 361h84v-100h-84v100z" />
    <glyph glyph-name="cedilla" unicode="&#xb8;" 
d="M167 -127l94 139h55l-81 -170z" />
    <glyph glyph-name="ordmasculine" unicode="&#xba;" horiz-adv-x="416" 
d="M207 425q-33 0 -60.5 12t-47.5 33t-31.5 48.5t-11.5 58.5v2q0 31 11.5 59t32 49t48.5 33.5t61 12.5t60.5 -12t47.5 -33t31 -48.5t11 -58.5v-2q0 -31 -11.5 -59t-31.5 -49t-48 -33.5t-61 -12.5zM58 348h300v-46h-300v46zM209 471q45 0 72 31t27 75v2q0 22 -7.5 42
t-21 34.5t-32 23t-40.5 8.5q-45 0 -72.5 -31t-27.5 -75v-2q0 -23 8 -42.5t21.5 -34t32 -23t40.5 -8.5z" />
    <glyph glyph-name="guillemotright" unicode="&#xbb;" horiz-adv-x="566" 
d="M291 73l140 193l-140 195l49 30l169 -220v-8l-169 -219zM68 73l140 193l-140 195l49 30l170 -220v-8l-170 -219z" />
    <glyph glyph-name="questiondown" unicode="&#xbf;" horiz-adv-x="567" 
d="M265 728h84v-100h-84v100zM286 -9q-52 0 -94.5 15.5t-72.5 43t-46 65t-16 80.5v2q0 49 17 86t47 63t69.5 41.5t84.5 21.5l10 120h44l15 -168l-5 -6q-103 -2 -157.5 -43.5t-54.5 -111.5v-2q0 -30 11 -56.5t32 -46t51 -31t68 -11.5q60 0 106.5 27t87.5 75l46 -42
q-45 -55 -102.5 -88.5t-140.5 -33.5z" />
    <glyph glyph-name="Agrave" unicode="&#xc0;" horiz-adv-x="832" 
d="M383 733h66l335 -733h-76l-88 198h-411l-89 -198h-72zM592 261l-177 393l-178 -393h355zM386 804l-116 95l73 34l101 -129h-58z" />
    <glyph glyph-name="Aacute" unicode="&#xc1;" horiz-adv-x="832" 
d="M383 733h66l335 -733h-76l-88 198h-411l-89 -198h-72zM592 261l-177 393l-178 -393h355zM489 933l73 -34l-116 -95h-58z" />
    <glyph glyph-name="Acircumflex" unicode="&#xc2;" horiz-adv-x="832" 
d="M383 733h66l335 -733h-76l-88 198h-411l-89 -198h-72zM592 261l-177 393l-178 -393h355zM384 922h64l111 -118h-67l-77 63l-77 -63h-65z" />
    <glyph glyph-name="Atilde" unicode="&#xc3;" horiz-adv-x="832" 
d="M383 733h66l335 -733h-76l-88 198h-411l-89 -198h-72zM592 261l-177 393l-178 -393h355zM490 804q-17 0 -37 7t-40 15q-16 7 -31.5 12.5t-27.5 5.5q-20 0 -31 -11.5t-22 -37.5l-46 12q16 53 37.5 76.5t54.5 23.5q17 0 37 -7t40 -16q16 -6 31.5 -11.5t27.5 -5.5
q20 0 31 11t22 37l46 -13q-16 -52 -37.5 -75t-54.5 -23z" />
    <glyph glyph-name="Adieresis" unicode="&#xc4;" horiz-adv-x="832" 
d="M383 733h66l335 -733h-76l-88 198h-411l-89 -198h-72zM592 261l-177 393l-178 -393h355zM468 891h87v-87h-87v87zM278 891h88v-87h-88v87z" />
    <glyph glyph-name="Aring" unicode="&#xc5;" horiz-adv-x="832" 
d="M363 692q-27 13 -43.5 36t-16.5 53q0 22 9 40.5t24.5 32t36 21.5t43.5 8t43.5 -8t36 -21.5t24.5 -32t9 -40.5q0 -30 -17 -53.5t-44 -36.5l316 -691h-76l-88 198h-411l-89 -198h-72zM592 261l-177 393l-178 -393h355zM416 717q29 0 49.5 18.5t20.5 45.5q0 28 -20.5 46.5
t-49.5 18.5q-30 0 -50 -18.5t-20 -46.5q0 -27 20 -45.5t50 -18.5z" />
    <glyph glyph-name="AE" unicode="&#xc6;" horiz-adv-x="1097" 
d="M458 728h565v-64h-436v-265h389v-64h-389v-271h441v-64h-511v198h-302l-117 -198h-74zM517 261v405h-26l-240 -405h266z" />
    <glyph glyph-name="AE" unicode="&#x1fc;" horiz-adv-x="1097" 
d="M458 728h565v-64h-436v-265h389v-64h-389v-271h441v-64h-511v198h-302l-117 -198h-74zM517 261v405h-26l-240 -405h266z" />
    <glyph glyph-name="Ccedilla" unicode="&#xc7;" horiz-adv-x="782" 
d="M320 -127l79 117q-70 7 -129 39t-101.5 81.5t-66.5 114t-24 137.5v2q0 77 27.5 145.5t76 119.5t115.5 81t147 30q49 0 89 -8.5t74 -23.5t63.5 -36.5t57.5 -46.5l-48 -52q-47 45 -103 74.5t-134 29.5q-63 0 -116.5 -24t-92.5 -66t-61 -99t-22 -122v-2q0 -66 22.5 -123
t62 -99t93 -66.5t115.5 -24.5q76 0 132 28.5t110 80.5l46 -45q-28 -28 -57 -50.5t-62.5 -39t-71.5 -26t-84 -10.5l-69 -147z" />
    <glyph glyph-name="Egrave" unicode="&#xc8;" horiz-adv-x="707" 
d="M344 794l-116 95l73 34l101 -129h-58zM110 728h523v-64h-453v-265h406v-64h-406v-271h458v-64h-528v728z" />
    <glyph glyph-name="Eacute" unicode="&#xc9;" horiz-adv-x="707" 
d="M446 923l73 -34l-116 -95h-58zM110 728h523v-64h-453v-265h406v-64h-406v-271h458v-64h-528v728z" />
    <glyph glyph-name="Ecircumflex" unicode="&#xca;" horiz-adv-x="707" 
d="M110 728h523v-64h-453v-265h406v-64h-406v-271h458v-64h-528v728zM341 912h64l111 -118h-67l-77 63l-77 -63h-65z" />
    <glyph glyph-name="Edieresis" unicode="&#xcb;" horiz-adv-x="707" 
d="M425 881h87v-87h-87v87zM235 881h88v-87h-88v87zM110 728h523v-64h-453v-265h406v-64h-406v-271h458v-64h-528v728z" />
    <glyph glyph-name="Igrave" unicode="&#xcc;" horiz-adv-x="305" 
d="M117 728h70v-728h-70v728zM124 794l-116 95l73 34l101 -129h-58z" />
    <glyph glyph-name="Iacute" unicode="&#xcd;" horiz-adv-x="305" 
d="M117 728h70v-728h-70v728zM226 923l73 -34l-116 -95h-58z" />
    <glyph glyph-name="Icircumflex" unicode="&#xce;" horiz-adv-x="305" 
d="M117 728h70v-728h-70v728zM121 912h64l111 -118h-67l-77 63l-77 -63h-65z" />
    <glyph glyph-name="Idieresis" unicode="&#xcf;" horiz-adv-x="305" 
d="M117 728h70v-728h-70v728zM205 881h87v-87h-87v87zM15 881h88v-87h-88v87z" />
    <glyph glyph-name="Eth" unicode="&#xd0;" horiz-adv-x="854" 
d="M141 337h-78v59h78v332h249q86 0 157 -27.5t122 -76.5t79.5 -115t28.5 -143v-2q0 -77 -28.5 -143.5t-79.5 -115.5t-122 -77t-157 -28h-249v337zM211 337v-273h179q72 0 130 23t99 63.5t63 94.5t22 117v2q0 62 -22 117t-63 95.5t-99 64t-130 23.5h-179v-268h229v-59h-229z
" />
    <glyph glyph-name="Ntilde" unicode="&#xd1;" horiz-adv-x="832" 
d="M490 791q-17 0 -37 7t-40 15q-16 7 -31.5 12.5t-27.5 5.5q-20 0 -31 -11.5t-22 -37.5l-46 12q16 53 37.5 76.5t54.5 23.5q17 0 37 -7t40 -16q16 -6 31.5 -11.5t27.5 -5.5q20 0 31 11t22 37l46 -13q-16 -52 -37.5 -75t-54.5 -23zM110 728h66l478 -606v606h68v-728h-55
l-489 619v-619h-68v728z" />
    <glyph glyph-name="Ograve" unicode="&#xd2;" horiz-adv-x="894" 
d="M418 804l-116 95l73 34l101 -129h-58zM446 -12q-83 0 -151 30.5t-116 81.5t-74.5 119t-26.5 143v2q0 75 26.5 143t75.5 120t117 82.5t151 30.5t151 -30.5t116 -81.5t74.5 -119t26.5 -143v-2q0 -75 -26.5 -143t-75.5 -120t-117 -82.5t-151 -30.5zM448 51q64 0 118.5 24.5
t93.5 66.5t61 98.5t22 121.5v2q0 64 -22 121t-62 100t-94.5 67.5t-118.5 24.5q-65 0 -119 -24.5t-93 -66.5t-61 -99t-22 -121v-2q0 -65 22 -121.5t62 -99.5t94 -67.5t119 -24.5z" />
    <glyph glyph-name="Oacute" unicode="&#xd3;" horiz-adv-x="894" 
d="M520 933l73 -34l-116 -95h-58zM446 -12q-83 0 -151 30.5t-116 81.5t-74.5 119t-26.5 143v2q0 75 26.5 143t75.5 120t117 82.5t151 30.5t151 -30.5t116 -81.5t74.5 -119t26.5 -143v-2q0 -75 -26.5 -143t-75.5 -120t-117 -82.5t-151 -30.5zM448 51q64 0 118.5 24.5
t93.5 66.5t61 98.5t22 121.5v2q0 64 -22 121t-62 100t-94.5 67.5t-118.5 24.5q-65 0 -119 -24.5t-93 -66.5t-61 -99t-22 -121v-2q0 -65 22 -121.5t62 -99.5t94 -67.5t119 -24.5z" />
    <glyph glyph-name="Ocircumflex" unicode="&#xd4;" horiz-adv-x="894" 
d="M446 -12q-83 0 -151 30.5t-116 81.5t-74.5 119t-26.5 143v2q0 75 26.5 143t75.5 120t117 82.5t151 30.5t151 -30.5t116 -81.5t74.5 -119t26.5 -143v-2q0 -75 -26.5 -143t-75.5 -120t-117 -82.5t-151 -30.5zM448 51q64 0 118.5 24.5t93.5 66.5t61 98.5t22 121.5v2
q0 64 -22 121t-62 100t-94.5 67.5t-118.5 24.5q-65 0 -119 -24.5t-93 -66.5t-61 -99t-22 -121v-2q0 -65 22 -121.5t62 -99.5t94 -67.5t119 -24.5zM415 922h64l111 -118h-67l-77 63l-77 -63h-65z" />
    <glyph glyph-name="Otilde" unicode="&#xd5;" horiz-adv-x="894" 
d="M521 804q-17 0 -37 7t-40 15q-16 7 -31.5 12.5t-27.5 5.5q-20 0 -31 -11.5t-22 -37.5l-46 12q16 53 37.5 76.5t54.5 23.5q17 0 37 -7t40 -16q16 -6 31.5 -11.5t27.5 -5.5q20 0 31 11t22 37l46 -13q-16 -52 -37.5 -75t-54.5 -23zM446 -12q-83 0 -151 30.5t-116 81.5
t-74.5 119t-26.5 143v2q0 75 26.5 143t75.5 120t117 82.5t151 30.5t151 -30.5t116 -81.5t74.5 -119t26.5 -143v-2q0 -75 -26.5 -143t-75.5 -120t-117 -82.5t-151 -30.5zM448 51q64 0 118.5 24.5t93.5 66.5t61 98.5t22 121.5v2q0 64 -22 121t-62 100t-94.5 67.5t-118.5 24.5
q-65 0 -119 -24.5t-93 -66.5t-61 -99t-22 -121v-2q0 -65 22 -121.5t62 -99.5t94 -67.5t119 -24.5z" />
    <glyph glyph-name="Odieresis" unicode="&#xd6;" horiz-adv-x="894" 
d="M499 891h87v-87h-87v87zM309 891h88v-87h-88v87zM446 -12q-83 0 -151 30.5t-116 81.5t-74.5 119t-26.5 143v2q0 75 26.5 143t75.5 120t117 82.5t151 30.5t151 -30.5t116 -81.5t74.5 -119t26.5 -143v-2q0 -75 -26.5 -143t-75.5 -120t-117 -82.5t-151 -30.5zM448 51
q64 0 118.5 24.5t93.5 66.5t61 98.5t22 121.5v2q0 64 -22 121t-62 100t-94.5 67.5t-118.5 24.5q-65 0 -119 -24.5t-93 -66.5t-61 -99t-22 -121v-2q0 -65 22 -121.5t62 -99.5t94 -67.5t119 -24.5z" />
    <glyph glyph-name="Oslash" unicode="&#xd8;" horiz-adv-x="894" 
d="M825 733l-104 -112q46 -51 70.5 -117t24.5 -138v-2q0 -75 -26.5 -143t-75.5 -120t-117 -82.5t-151 -30.5q-69 0 -128 21t-105 59l-68 -73h-76l104 111q-46 51 -70.5 117t-24.5 139v2q0 75 26.5 143t75.5 120t117 82.5t151 30.5q69 0 127.5 -21t104.5 -59l69 73h76z
M149 365q0 -60 19 -113t53 -95l415 452q-38 32 -86 50.5t-104 18.5q-65 0 -119.5 -24.5t-94 -66.5t-61.5 -99t-22 -122v-1zM448 50q65 0 119.5 24.5t94 66.5t61.5 99t22 122v1q0 60 -19 113t-53 95l-416 -452q38 -33 86.5 -51.5t104.5 -17.5z" />
    <glyph glyph-name="Ugrave" unicode="&#xd9;" horiz-adv-x="800" 
d="M370 791l-116 95l73 34l101 -129h-58zM400 -11q-67 0 -122.5 20.5t-95 60t-61.5 98.5t-22 136v424h70v-419q0 -124 61.5 -190.5t171.5 -66.5q105 0 167 63.5t62 188.5v424h70v-418q0 -79 -22 -139t-61.5 -100.5t-95 -61t-122.5 -20.5z" />
    <glyph glyph-name="Uacute" unicode="&#xda;" horiz-adv-x="800" 
d="M473 920l73 -34l-116 -95h-58zM400 -11q-67 0 -122.5 20.5t-95 60t-61.5 98.5t-22 136v424h70v-419q0 -124 61.5 -190.5t171.5 -66.5q105 0 167 63.5t62 188.5v424h70v-418q0 -79 -22 -139t-61.5 -100.5t-95 -61t-122.5 -20.5z" />
    <glyph glyph-name="Ucircumflex" unicode="&#xdb;" horiz-adv-x="800" 
d="M400 -11q-67 0 -122.5 20.5t-95 60t-61.5 98.5t-22 136v424h70v-419q0 -124 61.5 -190.5t171.5 -66.5q105 0 167 63.5t62 188.5v424h70v-418q0 -79 -22 -139t-61.5 -100.5t-95 -61t-122.5 -20.5zM368 909h64l111 -118h-67l-77 63l-77 -63h-65z" />
    <glyph glyph-name="Udieresis" unicode="&#xdc;" horiz-adv-x="800" 
d="M452 878h87v-87h-87v87zM262 878h88v-87h-88v87zM400 -11q-67 0 -122.5 20.5t-95 60t-61.5 98.5t-22 136v424h70v-419q0 -124 61.5 -190.5t171.5 -66.5q105 0 167 63.5t62 188.5v424h70v-418q0 -79 -22 -139t-61.5 -100.5t-95 -61t-122.5 -20.5z" />
    <glyph glyph-name="Yacute" unicode="&#xdd;" horiz-adv-x="755" 
d="M342 288l-307 440h86l257 -376l259 376h82l-307 -439v-289h-70v288zM450 920l73 -34l-116 -95h-58z" />
    <glyph glyph-name="Thorn" unicode="&#xde;" horiz-adv-x="710" 
d="M110 728h70v-128h199q61 0 111 -15.5t86 -45t55.5 -71.5t19.5 -95v-2q0 -58 -23 -102.5t-62 -74.5t-91 -45t-110 -15h-185v-134h-70v728zM369 198q48 0 87 12t66.5 34.5t43 54t15.5 69.5v2q0 41 -15 72t-42.5 52t-65.5 31.5t-84 10.5h-194v-338h189z" />
    <glyph glyph-name="germandbls" unicode="&#xdf;" horiz-adv-x="655" 
d="M307 54q98 2 154 38t56 105v2q0 66 -56.5 103t-153.5 48v51q35 12 65 28t52 37.5t34.5 48.5t12.5 60v3q0 28 -10.5 51.5t-29.5 40.5t-45.5 26.5t-58.5 9.5q-35 0 -65 -13t-51.5 -37t-33.5 -58.5t-12 -76.5v-521h-67v520q0 55 16.5 100t46.5 77.5t73 50.5t97 18
q48 0 87 -14.5t66 -39t42 -58t15 -72.5v-3q0 -37 -13 -67.5t-34.5 -54.5t-49 -42t-56.5 -29q39 -8 75 -22t63.5 -36.5t44 -54t16.5 -73.5v-2q0 -48 -19.5 -85t-56 -63t-88.5 -39t-116 -13v56z" />
    <glyph glyph-name="agrave" unicode="&#xe0;" horiz-adv-x="610" 
d="M259 -12q-38 0 -74 10.5t-65 31.5t-46.5 52.5t-17.5 72.5v2q0 42 17 74.5t47.5 54t73 33t93.5 11.5q54 0 93 -6t76 -17v21q0 76 -43.5 115t-122.5 39q-48 0 -87.5 -11.5t-77.5 -29.5l-21 56q44 20 89.5 32.5t102.5 12.5q111 0 171 -58q27 -28 41 -65.5t14 -88.5v-330h-66
v84q-14 -19 -33 -36t-43 -30.5t-54.5 -21.5t-66.5 -8zM268 45q39 0 73.5 11t60.5 31.5t41 48.5t15 62v56q-32 8 -73.5 15.5t-95.5 7.5q-79 0 -121.5 -31.5t-42.5 -84.5v-3q0 -27 11.5 -48t31.5 -35.5t45.5 -22t54.5 -7.5zM164 729l74 35l95 -145h-54z" />
    <glyph glyph-name="aacute" unicode="&#xe1;" horiz-adv-x="610" 
d="M259 -12q-38 0 -74 10.5t-65 31.5t-46.5 52.5t-17.5 72.5v2q0 42 17 74.5t47.5 54t73 33t93.5 11.5q54 0 93 -6t76 -17v21q0 76 -43.5 115t-122.5 39q-48 0 -87.5 -11.5t-77.5 -29.5l-21 56q44 20 89.5 32.5t102.5 12.5q111 0 171 -58q27 -28 41 -65.5t14 -88.5v-330h-66
v84q-14 -19 -33 -36t-43 -30.5t-54.5 -21.5t-66.5 -8zM268 45q39 0 73.5 11t60.5 31.5t41 48.5t15 62v56q-32 8 -73.5 15.5t-95.5 7.5q-79 0 -121.5 -31.5t-42.5 -84.5v-3q0 -27 11.5 -48t31.5 -35.5t45.5 -22t54.5 -7.5zM373 764l74 -35l-115 -110h-54z" />
    <glyph glyph-name="acircumflex" unicode="&#xe2;" horiz-adv-x="610" 
d="M259 -12q-38 0 -74 10.5t-65 31.5t-46.5 52.5t-17.5 72.5v2q0 42 17 74.5t47.5 54t73 33t93.5 11.5q54 0 93 -6t76 -17v21q0 76 -43.5 115t-122.5 39q-48 0 -87.5 -11.5t-77.5 -29.5l-21 56q44 20 89.5 32.5t102.5 12.5q111 0 171 -58q27 -28 41 -65.5t14 -88.5v-330h-66
v84q-14 -19 -33 -36t-43 -30.5t-54.5 -21.5t-66.5 -8zM268 45q39 0 73.5 11t60.5 31.5t41 48.5t15 62v56q-32 8 -73.5 15.5t-95.5 7.5q-79 0 -121.5 -31.5t-42.5 -84.5v-3q0 -27 11.5 -48t31.5 -35.5t45.5 -22t54.5 -7.5zM276 751h58l108 -132h-60l-78 70l-78 -70h-57z" />
    <glyph glyph-name="atilde" unicode="&#xe3;" horiz-adv-x="610" 
d="M259 -12q-38 0 -74 10.5t-65 31.5t-46.5 52.5t-17.5 72.5v2q0 42 17 74.5t47.5 54t73 33t93.5 11.5q54 0 93 -6t76 -17v21q0 76 -43.5 115t-122.5 39q-48 0 -87.5 -11.5t-77.5 -29.5l-21 56q44 20 89.5 32.5t102.5 12.5q111 0 171 -58q27 -28 41 -65.5t14 -88.5v-330h-66
v84q-14 -19 -33 -36t-43 -30.5t-54.5 -21.5t-66.5 -8zM268 45q39 0 73.5 11t60.5 31.5t41 48.5t15 62v56q-32 8 -73.5 15.5t-95.5 7.5q-79 0 -121.5 -31.5t-42.5 -84.5v-3q0 -27 11.5 -48t31.5 -35.5t45.5 -22t54.5 -7.5zM378 619q-17 0 -34 6.5t-37 14.5q-17 8 -34.5 14.5
t-30.5 6.5q-20 0 -31 -11.5t-22 -40.5l-43 12q15 58 37 81t57 23q17 0 34 -6.5t37 -14.5q17 -8 34.5 -14.5t30.5 -6.5q20 0 31 11t22 40l43 -11q-15 -58 -37 -81t-57 -23z" />
    <glyph glyph-name="adieresis" unicode="&#xe4;" horiz-adv-x="610" 
d="M259 -12q-38 0 -74 10.5t-65 31.5t-46.5 52.5t-17.5 72.5v2q0 42 17 74.5t47.5 54t73 33t93.5 11.5q54 0 93 -6t76 -17v21q0 76 -43.5 115t-122.5 39q-48 0 -87.5 -11.5t-77.5 -29.5l-21 56q44 20 89.5 32.5t102.5 12.5q111 0 171 -58q27 -28 41 -65.5t14 -88.5v-330h-66
v84q-14 -19 -33 -36t-43 -30.5t-54.5 -21.5t-66.5 -8zM268 45q39 0 73.5 11t60.5 31.5t41 48.5t15 62v56q-32 8 -73.5 15.5t-95.5 7.5q-79 0 -121.5 -31.5t-42.5 -84.5v-3q0 -27 11.5 -48t31.5 -35.5t45.5 -22t54.5 -7.5zM351 711h84v-92h-84v92zM175 711h84v-92h-84v92z
" />
    <glyph glyph-name="aring" unicode="&#xe5;" horiz-adv-x="610" 
d="M259 -12q-38 0 -74 10.5t-65 31.5t-46.5 52.5t-17.5 72.5v2q0 42 17 74.5t47.5 54t73 33t93.5 11.5q54 0 93 -6t76 -17v21q0 76 -43.5 115t-122.5 39q-48 0 -87.5 -11.5t-77.5 -29.5l-21 56q44 20 89.5 32.5t102.5 12.5q111 0 171 -58q27 -28 41 -65.5t14 -88.5v-330h-66
v84q-14 -19 -33 -36t-43 -30.5t-54.5 -21.5t-66.5 -8zM268 45q39 0 73.5 11t60.5 31.5t41 48.5t15 62v56q-32 8 -73.5 15.5t-95.5 7.5q-79 0 -121.5 -31.5t-42.5 -84.5v-3q0 -27 11.5 -48t31.5 -35.5t45.5 -22t54.5 -7.5zM305 617q-23 0 -43 8.5t-35 23t-24 33.5t-9 41
t9 41.5t24 34t35 23t43 8.5t43 -8.5t35 -23t24 -34t9 -41.5t-9 -41t-24 -33.5t-35 -23t-43 -8.5zM305 651q29 0 50.5 21.5t21.5 50.5q0 30 -21.5 51.5t-50.5 21.5t-50.5 -21.5t-21.5 -51.5q0 -29 21.5 -50.5t50.5 -21.5z" />
    <glyph glyph-name="ae" unicode="&#xe6;" horiz-adv-x="1002" 
d="M257 -12q-38 0 -74 10.5t-64.5 31.5t-45.5 52.5t-17 72.5v2q0 42 16.5 74.5t46.5 54t71.5 33t91.5 11.5q51 0 88 -6t74 -17v21q0 76 -41.5 115t-118.5 39q-47 0 -84 -11.5t-75 -29.5l-21 56q45 21 87 33t99 12q78 0 128.5 -30.5t70.5 -92.5q32 58 86.5 93t123.5 35
q57 0 103 -22t77.5 -60t48.5 -89.5t17 -110.5v-12q0 -4 -1 -12h-432q4 -46 21 -82t44 -61t61 -38t71 -13q59 0 101 22.5t74 57.5l44 -39q-41 -45 -92.5 -72.5t-128.5 -27.5q-66 0 -122 29t-92 82q-42 -46 -100.5 -78.5t-135.5 -32.5zM876 295q-3 38 -15.5 73t-35 61.5
t-54.5 42.5t-75 16q-37 0 -69 -14.5t-56.5 -40.5t-39.5 -61t-19 -77h364zM264 45q63 0 113.5 29t88.5 74q-20 49 -23 107q-32 8 -71 15t-87 7q-78 0 -119 -31.5t-41 -84.5v-3q0 -27 11 -48t30 -35.5t44 -22t54 -7.5z" />
    <glyph glyph-name="ae" unicode="&#x1fd;" horiz-adv-x="1002" 
d="M257 -12q-38 0 -74 10.5t-64.5 31.5t-45.5 52.5t-17 72.5v2q0 42 16.5 74.5t46.5 54t71.5 33t91.5 11.5q51 0 88 -6t74 -17v21q0 76 -41.5 115t-118.5 39q-47 0 -84 -11.5t-75 -29.5l-21 56q45 21 87 33t99 12q78 0 128.5 -30.5t70.5 -92.5q32 58 86.5 93t123.5 35
q57 0 103 -22t77.5 -60t48.5 -89.5t17 -110.5v-12q0 -4 -1 -12h-432q4 -46 21 -82t44 -61t61 -38t71 -13q59 0 101 22.5t74 57.5l44 -39q-41 -45 -92.5 -72.5t-128.5 -27.5q-66 0 -122 29t-92 82q-42 -46 -100.5 -78.5t-135.5 -32.5zM876 295q-3 38 -15.5 73t-35 61.5
t-54.5 42.5t-75 16q-37 0 -69 -14.5t-56.5 -40.5t-39.5 -61t-19 -77h364zM264 45q63 0 113.5 29t88.5 74q-20 49 -23 107q-32 8 -71 15t-87 7q-78 0 -119 -31.5t-41 -84.5v-3q0 -27 11 -48t30 -35.5t44 -22t54 -7.5z" />
    <glyph glyph-name="ccedilla" unicode="&#xe7;" horiz-adv-x="604" 
d="M213 -127l80 118q-50 8 -92.5 32.5t-73 61.5t-47.5 83t-17 97v2q0 56 21 107t58 89.5t87 61t108 22.5q37 0 68 -8t57 -21.5t47.5 -31t40.5 -37.5l-45 -47q-33 34 -73 59t-97 25q-43 0 -80 -17t-64 -46.5t-42.5 -69t-15.5 -84.5v-2q0 -45 16 -85t44 -69.5t65.5 -46.5
t81.5 -17q54 0 96 24t74 60l44 -41q-39 -44 -87 -72.5t-117 -31.5l-69 -146z" />
    <glyph glyph-name="egrave" unicode="&#xe8;" horiz-adv-x="622" 
d="M328 -12q-54 0 -102 20t-84.5 56.5t-57.5 88t-21 113.5v2q0 58 19.5 109t53.5 88.5t80.5 59.5t101.5 22q58 0 104 -22t78 -60t49 -89.5t17 -110.5v-12q0 -4 -2 -12h-432q4 -46 21.5 -82t44.5 -61t61 -38t71 -13q58 0 100 22.5t75 57.5l43 -39q-41 -45 -92.5 -72.5
t-127.5 -27.5zM496 295q-3 38 -15.5 73t-35 61.5t-54.5 42.5t-75 16q-37 0 -69 -14.5t-56.5 -40.5t-39.5 -61t-19 -77h364zM176 729l74 35l95 -145h-54z" />
    <glyph glyph-name="eacute" unicode="&#xe9;" horiz-adv-x="622" 
d="M385 764l74 -35l-115 -110h-54zM328 -12q-54 0 -102 20t-84.5 56.5t-57.5 88t-21 113.5v2q0 58 19.5 109t53.5 88.5t80.5 59.5t101.5 22q58 0 104 -22t78 -60t49 -89.5t17 -110.5v-12q0 -4 -2 -12h-432q4 -46 21.5 -82t44.5 -61t61 -38t71 -13q58 0 100 22.5t75 57.5
l43 -39q-41 -45 -92.5 -72.5t-127.5 -27.5zM496 295q-3 38 -15.5 73t-35 61.5t-54.5 42.5t-75 16q-37 0 -69 -14.5t-56.5 -40.5t-39.5 -61t-19 -77h364z" />
    <glyph glyph-name="ecircumflex" unicode="&#xea;" horiz-adv-x="622" 
d="M289 751h58l108 -132h-60l-78 70l-78 -70h-57zM328 -12q-54 0 -102 20t-84.5 56.5t-57.5 88t-21 113.5v2q0 58 19.5 109t53.5 88.5t80.5 59.5t101.5 22q58 0 104 -22t78 -60t49 -89.5t17 -110.5v-12q0 -4 -2 -12h-432q4 -46 21.5 -82t44.5 -61t61 -38t71 -13
q58 0 100 22.5t75 57.5l43 -39q-41 -45 -92.5 -72.5t-127.5 -27.5zM496 295q-3 38 -15.5 73t-35 61.5t-54.5 42.5t-75 16q-37 0 -69 -14.5t-56.5 -40.5t-39.5 -61t-19 -77h364z" />
    <glyph glyph-name="edieresis" unicode="&#xeb;" horiz-adv-x="622" 
d="M364 711h84v-92h-84v92zM188 711h84v-92h-84v92zM328 -12q-54 0 -102 20t-84.5 56.5t-57.5 88t-21 113.5v2q0 58 19.5 109t53.5 88.5t80.5 59.5t101.5 22q58 0 104 -22t78 -60t49 -89.5t17 -110.5v-12q0 -4 -2 -12h-432q4 -46 21.5 -82t44.5 -61t61 -38t71 -13
q58 0 100 22.5t75 57.5l43 -39q-41 -45 -92.5 -72.5t-127.5 -27.5zM496 295q-3 38 -15.5 73t-35 61.5t-54.5 42.5t-75 16q-37 0 -69 -14.5t-56.5 -40.5t-39.5 -61t-19 -77h364z" />
    <glyph glyph-name="igrave" unicode="&#xec;" horiz-adv-x="277" 
d="M105 534h67v-534h-67v534zM-2 729l74 35l95 -145h-54z" />
    <glyph glyph-name="iacute" unicode="&#xed;" horiz-adv-x="277" 
d="M207 764l74 -35l-115 -110h-54zM105 534h67v-534h-67v534z" />
    <glyph glyph-name="icircumflex" unicode="&#xee;" horiz-adv-x="277" 
d="M110 751h58l108 -132h-60l-78 70l-78 -70h-57zM105 534h67v-534h-67v534z" />
    <glyph glyph-name="idieresis" unicode="&#xef;" horiz-adv-x="277" 
d="M185 711h84v-92h-84v92zM9 711h84v-92h-84v92zM105 534h67v-534h-67v534z" />
    <glyph glyph-name="eth" unicode="&#xf0;" horiz-adv-x="679" 
d="M419 677q42 -41 78 -84.5t62 -91.5t41 -99.5t15 -107.5v-2q0 -67 -20.5 -123t-57 -96t-88 -62.5t-114.5 -22.5q-57 0 -107 22t-86.5 60t-57.5 89t-21 109v2q0 59 21 108t56.5 83.5t81 53.5t95.5 19q34 0 62.5 -7t52.5 -18t44 -25.5t37 -30.5q-22 48 -61.5 97.5
t-92.5 99.5l-118 -53l-23 44l100 45q-21 19 -44 37l-46 36h99l53 -45l106 48l24 -44zM340 49q45 0 82.5 16.5t64.5 46t42.5 69t15.5 85.5v2q0 44 -15.5 82t-44 66t-68 44t-86.5 16q-45 0 -81.5 -16t-62.5 -44.5t-40 -66.5t-14 -83v-2q0 -44 15.5 -83t43.5 -68.5t66 -46.5
t82 -17z" />
    <glyph glyph-name="ntilde" unicode="&#xf1;" horiz-adv-x="649" 
d="M98 534h67v-95q26 45 71 76.5t116 31.5q49 0 88 -16t66 -45t41 -68.5t14 -87.5v-330h-67v314q0 79 -41.5 125t-116.5 46q-36 0 -67.5 -13t-54.5 -36.5t-36 -56.5t-13 -72v-307h-67v534zM401 619q-17 0 -34 6.5t-37 14.5q-17 8 -34.5 14.5t-30.5 6.5q-20 0 -31 -11.5
t-22 -40.5l-43 12q15 58 37 81t57 23q17 0 34 -6.5t37 -14.5q17 -8 34.5 -14.5t30.5 -6.5q20 0 31 11t22 40l43 -11q-15 -58 -37 -81t-57 -23z" />
    <glyph glyph-name="ograve" unicode="&#xf2;" horiz-adv-x="679" 
d="M339 -12q-60 0 -110.5 22t-87.5 60t-57.5 88.5t-20.5 106.5v2q0 57 21 107.5t58 89t88 61t111 22.5t110.5 -22t87 -60t57.5 -88.5t21 -107.5v-2q0 -56 -21 -107t-58 -89t-88 -60.5t-111 -22.5zM341 49q45 0 82.5 17t65 46.5t42.5 69t15 83.5v2q0 45 -16 85t-43.5 70
t-65.5 47t-82 17q-45 0 -83 -17t-65.5 -46.5t-42.5 -69t-15 -84.5v-2q0 -45 16 -85t44 -69.5t66 -46.5t82 -17zM198 729l74 35l95 -145h-54z" />
    <glyph glyph-name="oacute" unicode="&#xf3;" horiz-adv-x="679" 
d="M407 764l74 -35l-115 -110h-54zM339 -12q-60 0 -110.5 22t-87.5 60t-57.5 88.5t-20.5 106.5v2q0 57 21 107.5t58 89t88 61t111 22.5t110.5 -22t87 -60t57.5 -88.5t21 -107.5v-2q0 -56 -21 -107t-58 -89t-88 -60.5t-111 -22.5zM341 49q45 0 82.5 17t65 46.5t42.5 69
t15 83.5v2q0 45 -16 85t-43.5 70t-65.5 47t-82 17q-45 0 -83 -17t-65.5 -46.5t-42.5 -69t-15 -84.5v-2q0 -45 16 -85t44 -69.5t66 -46.5t82 -17z" />
    <glyph glyph-name="ocircumflex" unicode="&#xf4;" horiz-adv-x="679" 
d="M311 751h58l108 -132h-60l-78 70l-78 -70h-57zM339 -12q-60 0 -110.5 22t-87.5 60t-57.5 88.5t-20.5 106.5v2q0 57 21 107.5t58 89t88 61t111 22.5t110.5 -22t87 -60t57.5 -88.5t21 -107.5v-2q0 -56 -21 -107t-58 -89t-88 -60.5t-111 -22.5zM341 49q45 0 82.5 17t65 46.5
t42.5 69t15 83.5v2q0 45 -16 85t-43.5 70t-65.5 47t-82 17q-45 0 -83 -17t-65.5 -46.5t-42.5 -69t-15 -84.5v-2q0 -45 16 -85t44 -69.5t66 -46.5t82 -17z" />
    <glyph glyph-name="otilde" unicode="&#xf5;" horiz-adv-x="679" 
d="M339 -12q-60 0 -110.5 22t-87.5 60t-57.5 88.5t-20.5 106.5v2q0 57 21 107.5t58 89t88 61t111 22.5t110.5 -22t87 -60t57.5 -88.5t21 -107.5v-2q0 -56 -21 -107t-58 -89t-88 -60.5t-111 -22.5zM341 49q45 0 82.5 17t65 46.5t42.5 69t15 83.5v2q0 45 -16 85t-43.5 70
t-65.5 47t-82 17q-45 0 -83 -17t-65.5 -46.5t-42.5 -69t-15 -84.5v-2q0 -45 16 -85t44 -69.5t66 -46.5t82 -17zM412 619q-17 0 -34 6.5t-37 14.5q-17 8 -34.5 14.5t-30.5 6.5q-20 0 -31 -11.5t-22 -40.5l-43 12q15 58 37 81t57 23q17 0 34 -6.5t37 -14.5q17 -8 34.5 -14.5
t30.5 -6.5q20 0 31 11t22 40l43 -11q-15 -58 -37 -81t-57 -23z" />
    <glyph glyph-name="odieresis" unicode="&#xf6;" horiz-adv-x="679" 
d="M386 711h84v-92h-84v92zM210 711h84v-92h-84v92zM339 -12q-60 0 -110.5 22t-87.5 60t-57.5 88.5t-20.5 106.5v2q0 57 21 107.5t58 89t88 61t111 22.5t110.5 -22t87 -60t57.5 -88.5t21 -107.5v-2q0 -56 -21 -107t-58 -89t-88 -60.5t-111 -22.5zM341 49q45 0 82.5 17
t65 46.5t42.5 69t15 83.5v2q0 45 -16 85t-43.5 70t-65.5 47t-82 17q-45 0 -83 -17t-65.5 -46.5t-42.5 -69t-15 -84.5v-2q0 -45 16 -85t44 -69.5t66 -46.5t82 -17z" />
    <glyph glyph-name="oslash" unicode="&#xf8;" horiz-adv-x="679" 
d="M632 541l-83 -88q32 -37 50 -84t18 -100v-2q0 -56 -21 -107t-58 -89t-88 -60.5t-111 -22.5q-50 0 -93 15.5t-78 42.5l-50 -51h-71l83 87q-32 37 -49.5 84t-17.5 99v2q0 57 21 107.5t58 89t88 61t111 22.5q50 0 93 -15.5t78 -43.5l49 53h71zM341 47q46 0 84 17t65.5 47
t42.5 69.5t15 84.5v1q0 39 -12 74.5t-34 64.5l-292 -311q26 -23 59.5 -35.5t71.5 -11.5zM132 268q0 -39 11.5 -74t32.5 -64l293 310q-26 22 -59 34.5t-71 12.5q-46 0 -84 -17t-65.5 -47t-42.5 -69.5t-15 -84.5v-1z" />
    <glyph glyph-name="ugrave" unicode="&#xf9;" horiz-adv-x="649" 
d="M297 -12q-50 0 -88.5 16t-65.5 44.5t-41 68.5t-14 88v329h67v-314q0 -78 41.5 -124.5t116.5 -46.5q36 0 67.5 13t54.5 36.5t36 56.5t13 72v307h67v-534h-67v96q-26 -45 -71 -76.5t-116 -31.5zM178 729l74 35l95 -145h-54z" />
    <glyph glyph-name="uacute" unicode="&#xfa;" horiz-adv-x="649" 
d="M387 764l74 -35l-115 -110h-54zM297 -12q-50 0 -88.5 16t-65.5 44.5t-41 68.5t-14 88v329h67v-314q0 -78 41.5 -124.5t116.5 -46.5q36 0 67.5 13t54.5 36.5t36 56.5t13 72v307h67v-534h-67v96q-26 -45 -71 -76.5t-116 -31.5z" />
    <glyph glyph-name="ucircumflex" unicode="&#xfb;" horiz-adv-x="649" 
d="M290 751h58l108 -132h-60l-78 70l-78 -70h-57zM297 -12q-50 0 -88.5 16t-65.5 44.5t-41 68.5t-14 88v329h67v-314q0 -78 41.5 -124.5t116.5 -46.5q36 0 67.5 13t54.5 36.5t36 56.5t13 72v307h67v-534h-67v96q-26 -45 -71 -76.5t-116 -31.5z" />
    <glyph glyph-name="udieresis" unicode="&#xfc;" horiz-adv-x="649" 
d="M365 711h84v-92h-84v92zM189 711h84v-92h-84v92zM297 -12q-50 0 -88.5 16t-65.5 44.5t-41 68.5t-14 88v329h67v-314q0 -78 41.5 -124.5t116.5 -46.5q36 0 67.5 13t54.5 36.5t36 56.5t13 72v307h67v-534h-67v96q-26 -45 -71 -76.5t-116 -31.5z" />
    <glyph glyph-name="yacute" unicode="&#xfd;" horiz-adv-x="623" 
d="M505 534h73l-228 -552q-17 -42 -36 -71t-40.5 -47t-46.5 -26t-54 -8q-32 0 -58 6.5t-53 19.5l23 55q20 -10 40 -15t47 -5q38 0 65.5 24.5t54.5 86.5l-249 532h75l207 -460zM383 764l74 -35l-115 -110h-54z" />
    <glyph glyph-name="thorn" unicode="&#xfe;" horiz-adv-x="699" 
d="M98 759h67v-337q17 25 38 47.5t47 40t57.5 27.5t69.5 10q48 0 94 -19t82.5 -54.5t58.5 -87t22 -117.5v-2q0 -66 -22 -117.5t-58.5 -87.5t-82.5 -55t-94 -19q-39 0 -70.5 10t-58 26.5t-47 38t-36.5 45.5v-274h-67v925zM366 50q41 0 77 14.5t62.5 42.5t42 67.5t15.5 90.5v2
q0 50 -16 90t-43 68.5t-62.5 44t-75.5 15.5q-39 0 -76 -16t-65.5 -44.5t-45.5 -68.5t-17 -88v-2q0 -48 17 -88t45.5 -68.5t65.5 -44t76 -15.5z" />
    <glyph glyph-name="ydieresis" unicode="&#xff;" horiz-adv-x="623" 
d="M505 534h73l-228 -552q-17 -42 -36 -71t-40.5 -47t-46.5 -26t-54 -8q-32 0 -58 6.5t-53 19.5l23 55q20 -10 40 -15t47 -5q38 0 65.5 24.5t54.5 86.5l-249 532h75l207 -460zM361 711h84v-92h-84v92zM185 711h84v-92h-84v92z" />
    <glyph glyph-name="dotlessi" unicode="&#x131;" horiz-adv-x="277" 
d="M105 534h67v-534h-67v534z" />
    <glyph glyph-name="Lslash" unicode="&#x141;" horiz-adv-x="681" 
d="M210 332v-268h419v-64h-488v299l-78 -36v69l78 36v360h69v-327l190 89v-69z" />
    <glyph glyph-name="lslash" unicode="&#x142;" horiz-adv-x="340" 
d="M203 366v-366h-67v330l-79 -43v70l79 42v360h67v-324l79 44v-69z" />
    <glyph glyph-name="OE" unicode="&#x152;" horiz-adv-x="1196" 
d="M465 0q-86 0 -157 27.5t-122 76.5t-79.5 115t-28.5 143v2q0 77 28.5 143.5t79.5 115.5t122 77t157 28h657v-64h-436v-265h389v-64h-389v-271h441v-64h-662zM616 64v600h-151q-72 0 -130 -23t-99 -63.5t-63 -94.5t-22 -117v-2q0 -62 22 -117t63 -95.5t99 -64t130 -23.5
h151z" />
    <glyph glyph-name="oe" unicode="&#x153;" horiz-adv-x="1104" 
d="M336 -12q-58 0 -108 22t-86.5 60t-57.5 88.5t-21 106.5v2q0 57 21 107.5t58 89t87.5 61t109.5 22.5q40 0 76.5 -11t67 -31.5t54.5 -48.5t40 -61q30 69 89 110.5t135 41.5q57 0 103 -22t78 -60t49 -89.5t17 -110.5q0 -8 -1 -12l-1 -12h-432q4 -46 21.5 -82t44 -61
t60.5 -38t71 -13q59 0 101 22.5t74 57.5l44 -39q-41 -45 -92.5 -72.5t-126.5 -27.5q-76 0 -139 40.5t-95 112.5q-32 -68 -95 -110.5t-146 -42.5zM978 295q-3 38 -15.5 73t-35 61.5t-54.5 42.5t-75 16q-37 0 -69 -14.5t-56.5 -40.5t-39.5 -61t-19 -77h364zM340 49
q45 0 82.5 17t65 46.5t42.5 69t15 83.5v2q0 45 -16 85t-43.5 70t-65.5 47t-82 17q-45 0 -82.5 -17.5t-65 -47t-42.5 -69t-15 -83.5v-2q0 -45 16 -85t43.5 -69.5t65.5 -46.5t82 -17z" />
    <glyph glyph-name="Scaron" unicode="&#x160;" horiz-adv-x="676" 
d="M358 -10q-87 0 -158 28.5t-137 87.5l44 52q58 -53 117.5 -79.5t137.5 -26.5q38 0 70 10t54.5 28t35 42.5t12.5 53.5v2q0 27 -8.5 48t-30.5 38.5t-60 32t-98 26.5q-64 13 -110.5 31t-76.5 43t-44 57.5t-14 76.5v2q0 42 18 77.5t49.5 62t75 41t94.5 14.5q80 0 138.5 -22
t114.5 -67l-42 -54q-51 43 -103 62t-110 19q-38 0 -68 -10t-52 -27.5t-33.5 -40.5t-11.5 -49v-2q0 -27 8.5 -48.5t31 -39.5t62.5 -33t102 -28q124 -26 181 -74t57 -130v-2q0 -45 -18.5 -82.5t-51 -64t-77.5 -41t-99 -14.5zM377 804h-64l-111 118h67l77 -63l77 63h65z" />
    <glyph glyph-name="scaron" unicode="&#x161;" horiz-adv-x="528" 
d="M296 619h-58l-107 132h59l78 -70l78 70h58zM273 -10q-58 0 -117 21t-104 57l36 50q90 -69 188 -69q51 0 85 25t34 67v2q0 22 -11.5 37t-30 26.5t-43.5 19.5t-52 16q-32 9 -64 20t-57.5 27.5t-41.5 41t-16 60.5v2q0 34 13 62t37 48t57 31t72 11q48 0 99 -16t92 -44
l-32 -52q-38 24 -79.5 38.5t-81.5 14.5q-51 0 -81.5 -24t-30.5 -61v-2q0 -21 12 -35.5t32 -25.5t45.5 -19.5t53.5 -16.5q31 -9 62.5 -21t56 -29t40 -41.5t15.5 -60.5v-2q0 -37 -14.5 -66.5t-40 -49.5t-60 -31t-73.5 -11z" />
    <glyph glyph-name="Ydieresis" unicode="&#x178;" horiz-adv-x="755" 
d="M342 288l-307 440h86l257 -376l259 376h82l-307 -439v-289h-70v288zM429 878h87v-87h-87v87zM239 878h88v-87h-88v87z" />
    <glyph glyph-name="Zcaron" unicode="&#x17d;" horiz-adv-x="729" 
d="M405 794h-64l-111 118h67l77 -63l77 63h65zM75 44l483 621h-466v63h563v-44l-484 -621h484v-63h-580v44z" />
    <glyph glyph-name="zcaron" unicode="&#x17e;" horiz-adv-x="588" 
d="M327 619h-58l-107 132h59l78 -70l78 70h58zM64 41l369 435h-355v58h449v-41l-369 -435h369v-58h-463v41z" />
    <glyph glyph-name="circumflex" unicode="&#x2c6;" 
d="M236 751h58l108 -132h-60l-78 70l-78 -70h-57z" />
    <glyph glyph-name="caron" unicode="&#x2c7;" 
d="M294 619h-58l-107 132h59l78 -70l78 70h58z" />
    <glyph glyph-name="breve" unicode="&#x2d8;" 
d="M265 617q-62 0 -102 32.5t-45 91.5h50q10 -29 33 -47.5t64 -18.5t64 18.5t33 47.5h50q-5 -59 -45 -91.5t-102 -32.5z" />
    <glyph glyph-name="dotaccent" unicode="&#x2d9;" 
d="M221 711h88v-92h-88v92z" />
    <glyph glyph-name="ring" unicode="&#x2da;" 
d="M265 617q-23 0 -43 8.5t-35 23t-24 33.5t-9 41t9 41.5t24 34t35 23t43 8.5t43 -8.5t35 -23t24 -34t9 -41.5t-9 -41t-24 -33.5t-35 -23t-43 -8.5zM265 651q29 0 50.5 21.5t21.5 50.5q0 30 -21.5 51.5t-50.5 21.5t-50.5 -21.5t-21.5 -51.5q0 -29 21.5 -50.5t50.5 -21.5z
" />
    <glyph glyph-name="ogonek" unicode="&#x2db;" 
d="M344 -171h-7q-66 2 -99 24.5t-33 58.5q0 29 18.5 53.5t52.5 51.5l47 -15q-29 -24 -43 -42t-14 -39q0 -22 18 -34t60 -15v-43z" />
    <glyph glyph-name="tilde" unicode="&#x2dc;" 
d="M334 619q-17 0 -34 6.5t-37 14.5q-17 8 -34.5 14.5t-30.5 6.5q-20 0 -31 -11.5t-22 -40.5l-43 12q15 58 37 81t57 23q17 0 34 -6.5t37 -14.5q17 -8 34.5 -14.5t30.5 -6.5q20 0 31 11t22 40l43 -11q-15 -58 -37 -81t-57 -23z" />
    <glyph glyph-name="hungarumlaut" unicode="&#x2dd;" 
d="M354 764l69 -35l-110 -110h-55zM205 764l68 -35l-109 -110h-55z" />
    <glyph glyph-name="endash" unicode="&#x2013;" horiz-adv-x="559" 
d="M75 345h409v-68h-409v68z" />
    <glyph glyph-name="emdash" unicode="&#x2014;" horiz-adv-x="944" 
d="M75 345h794v-68h-794v68z" />
    <glyph glyph-name="quoteleft" unicode="&#x2018;" horiz-adv-x="258" 
d="M82 600q0 57 24 87.5t78 45.5l13 -32q-37 -15 -52 -35.5t-13 -52.5h34v-100h-84v87z" />
    <glyph glyph-name="quoteright" unicode="&#x2019;" horiz-adv-x="258" 
d="M61 540q37 16 52 36t13 52h-34v100h84v-86q0 -57 -24 -87.5t-78 -46.5z" />
    <glyph glyph-name="quotesinglbase" unicode="&#x201a;" horiz-adv-x="258" 
d="M56 -88q37 16 52 36t13 52h-34v100h84v-86q0 -57 -24 -87.5t-78 -46.5z" />
    <glyph glyph-name="quotedblleft" unicode="&#x201c;" horiz-adv-x="457" 
d="M281 600q0 57 24 87.5t78 45.5l13 -32q-37 -15 -52.5 -35.5t-12.5 -52.5h33v-100h-83v87zM82 600q0 57 24 87.5t78 45.5l13 -32q-37 -15 -52 -35.5t-13 -52.5h34v-100h-84v87z" />
    <glyph glyph-name="quotedblright" unicode="&#x201d;" horiz-adv-x="457" 
d="M260 540q37 16 52 36t13 52h-34v100h84v-86q0 -57 -24.5 -87.5t-78.5 -46.5zM61 540q37 16 52 36t13 52h-34v100h84v-86q0 -57 -24 -87.5t-78 -46.5z" />
    <glyph glyph-name="quotedblbase" unicode="&#x201e;" horiz-adv-x="457" 
d="M255 -88q36 16 51.5 36t12.5 52h-33v100h84v-86q0 -57 -24.5 -87.5t-78.5 -46.5zM56 -88q37 16 52 36t13 52h-34v100h84v-86q0 -57 -24 -87.5t-78 -46.5z" />
    <glyph glyph-name="bullet" unicode="&#x2022;" horiz-adv-x="503" 
d="M252 233q-27 0 -51.5 10.5t-42.5 28.5t-28.5 42t-10.5 51v2q0 27 11 51t29 42t42 28.5t51 10.5q26 0 50 -10.5t42.5 -28.5t29.5 -42t11 -51v-2q0 -27 -10.5 -51t-28.5 -42t-42.5 -28.5t-51.5 -10.5z" />
    <glyph glyph-name="ellipsis" unicode="&#x2026;" horiz-adv-x="742" 
d="M574 98h81v-98h-81v98zM330 98h82v-98h-82v98zM87 98h81v-98h-81v98z" />
    <glyph glyph-name="guilsinglleft" unicode="&#x2039;" horiz-adv-x="343" 
d="M56 263v8l170 220l49 -30l-140 -193l140 -195l-49 -29z" />
    <glyph glyph-name="guilsinglright" unicode="&#x203a;" horiz-adv-x="343" 
d="M68 73l140 193l-140 195l49 30l170 -220v-8l-170 -219z" />
    <glyph glyph-name="Euro" unicode="&#x20ac;" horiz-adv-x="759" 
d="M642 559q-20 29 -40.5 51t-44 37t-51.5 23t-63 8q-38 0 -70.5 -14t-59.5 -39.5t-47.5 -61t-32.5 -77.5h280v-58h-292q-2 -16 -3.5 -32t-1.5 -31v-1q0 -28 3 -55h294v-59h-283q12 -45 33 -82t50 -63.5t64.5 -40.5t76.5 -14q65 0 110 34.5t83 91.5l50 -35
q-21 -33 -45.5 -61t-54.5 -48.5t-66 -32t-79 -11.5q-55 0 -102.5 19t-85.5 53.5t-65 82.5t-40 107h-94v59h84q-2 13 -2 27v27v1q0 16 1 31.5t3 32.5h-86v58h97q15 54 41.5 101t63 81t81.5 53t97 19q46 0 83 -11t67.5 -30t54.5 -45t45 -57z" />
    <glyph glyph-name="trademark" unicode="&#x2122;" horiz-adv-x="728" 
d="M353 728h44l119 -182l119 182h43v-320h-41v250l-119 -179h-5l-119 179v-250h-41v320zM136 688h-104v40h249v-40h-103v-280h-42v280z" />
    <glyph glyph-name="hcoslug" horiz-adv-x="694" 
d="M273 18q2 22 -19 22q-9 0 -14.5 -5.5t-5.5 -15.5q1 -20 21 -20q15 0 18 14h-7q-2 -7 -9 -7q-10 0 -10 12h26zM254 35q7 0 7 -12h-14q0 12 7 12zM195 78q-8 0 -8 16q0 15 8 15t8 -15q0 -16 -8 -16zM210 4q-8 0 -8 16q0 15 8 15t8 -15q0 -16 -8 -16zM210 -1q9 0 15 6t6 15
t-6 14.5t-15 5.5t-15 -5.5t-6 -14.5q0 -10 6 -15.5t15 -5.5zM546 4q-8 0 -8 16q0 15 8 15t8 -15q0 -16 -8 -16zM546 -1q9 0 15 6t6 15t-6 14.5t-15 5.5t-15 -5.5t-6 -14.5q0 -10 6 -15.5t15 -5.5zM125 74h30v7h-10v16h4q5 0 6 -8h7v23h-7q-1 -8 -6 -8h-4v18h12q5 0 7 -2.5
t4 -10.5h8v20h-51v-7h7v-41h-7v-7zM195 73q9 0 15 6t6 15t-6 14.5t-15 5.5t-15 -5.5t-6 -14.5q0 -10 6 -15.5t15 -5.5zM644 -100h-594v800h594v-800zM498 -1q22 0 24 23h-8q-2 -16 -14 -16q-16 0 -16 22t14 22q10 0 15 -16h8v22h-8l-1 -6q-7 7 -16 7q-11 0 -19 -8t-8 -22
q0 -28 29 -28zM372 80q-8 0 -8 13t8 13q7 0 7 -13t-7 -13zM276 0h23v7h-5v25h14v-25h-5v-7h23v7h-6v52l-10 -2q-4 2 -9 2q-8 0 -13.5 -4.5t-5.5 -14.5v-1h-7v-7h7v-25h-6v-7zM368 0h26v7h-8v16q4 9 7 9v-1q0 -6 6 -6q7 0 7 7q0 8 -8 8t-12 -11v10h-18v-7h6v-25h-6v-7z
M352 73h6l4 8q5 -8 14 -8t12.5 7t3.5 14q0 20 -15 20q-10 0 -13 -9v27h-18v-7h6v-52zM400 75q-7 0 -7 -7q0 -9 11 -9q12 0 18 16l13 31h5v7h-17v-7h5l-8 -20l-9 20h6v7h-25v-7h5q2 -5 6 -13l6 -11l4 -9q-2 -8 -8 -8q2 2 1 6t-6 4zM247 428q0 13 7.5 21t19.5 8q13 0 21 -10.5
t8 -27.5q0 -13 -5 -25t-13 -25q-17 17 -27.5 29.5t-10.5 29.5zM302 74h7l1 4q2 -2 5 -3.5t8 -1.5q14 0 14 13q0 6 -4 8.5t-8.5 3.5t-8 2t-3.5 4q0 4 5 4t10 -7h7v13h-6l-2 -5q-3 5 -11 5q-7 0 -10.5 -3.5t-3.5 -8.5q0 -6 3.5 -8.5t8 -4t8.5 -2.5t4 -4q0 -4 -5 -4q-6 0 -12 9
h-7v-14zM261 219q-23 0 -37.5 15.5t-14.5 38.5q0 24 16 40q14 -13 33.5 -34.5t40.5 -47.5q-15 -12 -38 -12zM274 122v-9h-7v-7h7v-20q0 -13 12 -13q11 0 14 13l-5 2q-1 -7 -5 -7t-4 5v20h13v7h-13v11zM428 306q7 -11 18 -18t25 -7q21 0 35.5 15.5t14.5 38.5t-14.5 37.5
t-35.5 14.5q-35 0 -60 -38q-2 20 -15.5 29t-33.5 8q9 15 9 34q0 13 -6 26.5t-18 24t-30 17t-41 6.5q-25 0 -45 -7t-34.5 -19t-22 -27.5t-7.5 -31.5q0 -22 7.5 -37t23.5 -32q-82 -28 -82 -91q0 -20 8.5 -37t23.5 -29.5t34.5 -19.5t42.5 -7q63 0 104 45q25 -26 43.5 -35.5
t41.5 -9.5q32 0 55 25t25 69l-7 2q-8 -13 -17.5 -21t-25.5 -8q-15 0 -29 9.5t-33 31.5q11 15 23 25t23 17zM219 74h22v7h-4v15q0 10 7 10q6 0 6 -7v-18h-4v-7h22v7h-6v19q0 14 -12 14q-9 0 -14 -11v10h-17v-7h6v-25h-6v-7zM446 33v-7h6q-2 -5 -6 -9q-3 3 -5.5 6t-6.5 7
q11 5 11 12q0 5 -3.5 8.5t-10.5 3.5q-8 0 -12.5 -4t-4.5 -10t6 -12q-13 -4 -13 -15q0 -14 18 -14q9 0 15 6q5 -6 12 -6q10 0 13 12l-5 1q-1 -5 -4 -5t-6 5q3 3 5 6t4 8h5v7h-18zM429 6q-10 0 -10 10q0 5 4 9q4 -4 7 -7.5t7 -8.5q-4 -3 -8 -3zM294 42q0 7 1.5 9.5t4.5 2.5
q2 0 3 -1q-1 -2 -1 -4q0 -5 6 -5v-5h-14v3zM425 43q0 5 5 5q6 0 6 -6t-5 -9q-6 6 -6 10zM312 342q30 20 42 34q17 -17 15 -36t-16 -44q-10 11 -19.5 22.5t-21.5 23.5zM366 18q2 22 -19 22q-8 0 -14 -6t-6 -15q0 -20 21 -20q14 0 18 14h-7q-1 -7 -9 -7q-10 0 -10 12h26z
M347 35q7 0 7 -12h-14q0 12 7 12zM124 0h29v7h-8v18h22v-18h-8v-7h29v7h-8v41h8v7h-29v-7h8v-16h-22v16h8v7h-29v-7h8v-41h-8v-7zM576 13q-7 0 -7 -7t7 -7t7 7t-7 7z" />
    <glyph glyph-name="acute.cap" 
d="M297 923l73 -34l-116 -95h-58z" />
    <glyph glyph-name="hungarumlaut.cap" 
d="M205 923l72 -34l-116 -95h-57zM358 923l72 -34l-115 -95h-58z" />
    <glyph glyph-name="caron.alt.cap" 
d="M239 770h71v-3l-52 -161h-35z" />
    <glyph glyph-name="grave.cap" 
d="M276 794l-116 95l73 34l101 -129h-58z" />
    <glyph glyph-name="circumflex.cap" 
d="M233 912h64l111 -118h-67l-77 63l-77 -63h-65z" />
    <glyph glyph-name="caron.cap" 
d="M297 794h-64l-111 118h67l77 -63l77 63h65z" />
    <glyph glyph-name="breve.cap" 
d="M265 792q-62 0 -102 29t-45 83h55q9 -26 31.5 -40t60.5 -14t60.5 14t31.5 40h55q-5 -54 -45 -83t-102 -29z" />
    <glyph glyph-name="tilde.cap" 
d="M336 794q-17 0 -37 7t-40 15q-16 7 -31.5 12.5t-27.5 5.5q-20 0 -31 -11.5t-22 -37.5l-46 12q16 53 37.5 76.5t54.5 23.5q17 0 37 -7t40 -16q16 -6 31.5 -11.5t27.5 -5.5q20 0 31 11t22 37l46 -13q-16 -52 -37.5 -75t-54.5 -23z" />
    <glyph glyph-name="macron.cap" 
d="M98 878h334v-60h-334v60z" />
    <glyph glyph-name="dieresis.cap" 
d="M316 881h87v-87h-87v87zM126 881h88v-87h-88v87z" />
    <glyph glyph-name="dotaccent.cap" 
d="M220 881h90v-87h-90v87z" />
    <glyph glyph-name="ring.cap" 
d="M265 792q-23 0 -43.5 7.5t-36 21t-24.5 32t-9 40.5t9 40.5t24.5 32t36 21t43.5 7.5t43.5 -7.5t36 -21t24.5 -32t9 -40.5t-9 -40.5t-24.5 -32t-36 -21t-43.5 -7.5zM265 829q30 0 50 18t20 46t-20 46.5t-50 18.5t-50 -18.5t-20 -46.5t20 -46t50 -18z" />
    <glyph glyph-name="commaaccent.cap" 
d="M199 -216q34 7 48.5 21t12.5 40h-38v80h86v-70q0 -87 -102 -99z" />
    <glyph glyph-name="cedilla.cap" 
d="M167 -127l94 139h55l-81 -170z" />
    <glyph glyph-name="ogonek.cap" 
d="M344 -171h-7q-66 2 -99 24.5t-33 58.5q0 29 18.5 53.5t52.5 51.5l47 -15q-29 -24 -43 -42t-14 -39q0 -22 18 -34t60 -15v-43z" />
    </font>
</defs>
</svg>
